<svg xmlns="http://www.w3.org/2000/svg" xmlns:xlink="http://www.w3.org/1999/xlink" version="1.1" id="Layer_1" x="0px" y="0px" width="353.3px" height="128.6px" viewBox="0 0 353.3 128.6" style="enable-;background-color:transparent;" xml:space="preserve">
<style type="text/css">
	.st0{fill:#FFFFFF;}
</style>
<g>
	<g>
		
		<path d="M66.4,0c0.1,0.1,0.2,0.2,0.4,0.2c22.1,2,41.8,16.2,49.7,36.9c-1.9-2.3-3.5-4.9-5.5-7.1C96.8,14.3,75,7.8,54.2,12.1    C21,18.9-0.1,51.2,7.3,84.4c0.6,2.8,1.5,5.4,2.3,8.1c-0.5-0.4-0.9-1.2-1.2-1.8C-14,52.4,12,3.4,55.9,0H66.4z" data-index="1" style="opacity: 1;"></path>
		<path d="M101.5,27.5l-5.9-0.7c-39.8-1.4-66.1,41.3-41.8,75.1c2.5,3.5,5.5,6.4,8.6,9.3c-14.4-2.5-27.3-11.8-34.2-24.7    C6.6,46.2,47.2,0,90,20.2C94,22,98.2,24.6,101.5,27.5z" data-index="2"></path>
		<path d="M91.4,121l-4.4,2.4c-29.3,13.7-64-2.1-73.1-32.9C9.7,76.6,11.7,62,18.5,49.3c0.4-0.1,0.2,0.5,0.1,0.7    c-0.8,3-1.5,5.9-1.8,9c-2.9,28.8,18.1,54.8,46.9,57.9c3,0.3,6.6-0.2,9.3,0.3c1.2,0.2,3.4,1.5,4.8,1.9    C82.2,120.5,86.8,121,91.4,121z" data-index="3"></path>
		<polygon points="162.8,42.9 162.8,51.3 148.5,51.3 148.5,59.6 162.8,59.6 162.8,67.8 148.5,67.8 148.5,76.4 162.8,76.4     162.8,84.8 139.3,84.8 139.3,42.9   "></polygon>
		<path d="M98.3,55.3c-2.8-1.2-5.3-2.8-8.4-3.5c-8.1-1.7-14.1,2.4-14.6,10.8C74.4,76,85.1,78.9,95.8,74c0.9-0.4,1.6-1.2,2.6-1.2v9.7    c-1.2,0.8-3,1.2-4.4,1.6c-8,2-15.1,1.7-21.4-4.1c-8.6-7.9-9.1-22.1-1.3-30.8c7.2-8,17.9-8.5,27.1-3.8V55.3z" data-index="4" style="opacity: 1;"></path>
		<polygon points="133.3,42.9 133.3,52 123.8,52 123.8,84.8 114.9,84.8 114.9,52 105.3,52 105.3,42.9   "></polygon>
		<path d="M146.9,106.8l-1.2-1.4c-6.6,5.7-13.2-3.8-6.4-8.5c-2.8-3.8-1.2-9,4.2-8.2c4.2,0.6,4.3,7.3,0.6,9l1.7,2l1-2.4h4.1l-3.1,5.2    l3.3,4.4H146.9z M142.4,91.8c-2.2,0.2-0.7,5.3,0.9,2.8C143.9,93.6,143.7,91.7,142.4,91.8z M141.2,99.7c-2.5,0.2-0.7,7.1,2.4,3    C143.2,102.2,141.7,99.6,141.2,99.7z" data-index="5" style="opacity: 1;"></path>
		<polygon points="263.3,89.1 263.3,92.7 257.3,92.7 257.3,96.1 263.1,96.1 263.1,99.7 257.3,99.7 257.3,103.2 263.8,103.2     263.8,106.8 254,106.8 254,89.1   "></polygon>
		<path d="M77,94.1c-0.6-1.6-2.7-2-4.2-1.2c-3.5,2-3,9.9,1.2,10.5c1.4,0.2,2.4-1,3.3-1.9l2.5,3c-0.9,1.1-2.4,2.4-3.8,2.6    c-12.2,2.5-12.8-20.2-0.4-18.6c1.5,0.2,3,1.4,4,2.5c0,0.2-2,2.7-2.1,2.8C77.3,94.2,77.2,94.2,77,94.1z" data-index="6" style="visibility: visible; opacity: 1;"></path>
		<polygon points="200.7,92.7 204.2,92.9 208.4,101.1 208.4,92.7 211.3,92.7 211.3,106.8 207.8,106.6 203.6,98.2 203.6,106.8     200.7,106.8   "></polygon>
		<polygon points="337.2,92.7 340.7,92.9 344.9,101.1 344.9,92.7 347.8,92.7 347.8,106.8 344.3,106.6 340.1,98.2 340.1,106.8     337.2,106.8   "></polygon>
		<path d="M328.3,92.5c9.9-1.7,9.6,13.6,3,14.7C321.6,108.9,321.6,93.7,328.3,92.5z M329.5,95.4c-4,0.5-3.5,9.2,0.4,9    C334.1,104.3,333.7,94.8,329.5,95.4z" data-index="7" style="visibility: visible; opacity: 1;"></path>
		<path d="M265.5,106.8V92.7h5.9c0.3,0,2,0.8,2.4,1c3.6,2.4,3.3,9.7-0.2,12.1c-0.3,0.2-1.9,1-2.1,1H265.5z M268.4,104    c3.6,0.2,5.1-1.4,4.8-4.9c-0.2-2.8-2.2-3.6-4.8-3.5V104z" data-index="8" style="visibility: visible; opacity: 1;"></path>
		<polygon points="191.9,92.7 191.9,98 195.9,98 195.9,92.7 198.8,92.7 198.8,106.8 195.9,106.8 195.9,100.9 191.9,100.9     191.9,106.8 188.8,106.8 188.8,92.7   "></polygon>
		<path d="M98.2,92.7c3.7,0.6,4.1,7,0.6,8.3l2.9,5.9h-3.4c-0.7-1.3-1.4-4.1-2.2-5.1c-0.3-0.4-0.4-0.5-0.9-0.4v5.5h-2.9V92.7    C94.1,92.9,96.5,92.4,98.2,92.7z M95.2,95.6v3.4C99.3,99.4,99.5,95,95.2,95.6z" data-index="9" style="opacity: 1;"></path>
		<path d="M127.2,92.7c3.7,0.6,4.1,7,0.6,8.3l2.9,5.9h-3.4c-0.7-1.3-1.4-4.1-2.2-5.1c-0.3-0.4-0.4-0.5-0.9-0.4v5.5h-2.9V92.7    C123.1,92.9,125.5,92.4,127.2,92.7z M124.2,95.6v3.4C128.3,99.4,128.5,95,124.2,95.6z" data-index="10" style="visibility: visible; opacity: 1;"></path>
		<polygon points="167.6,89.1 167.6,92.7 163.6,92.7 163.6,106.8 160,106.8 160,92.7 156.1,92.7 156.1,89.1   "></polygon>
		<path d="M280.4,92.7v9.7c0,0.9,1.2,2.2,2.2,2c0.9-0.1,1.8-1.7,1.8-2.5v-9.2h2.9v9.9c0,0.2-0.5,1.9-0.7,2.2c-1.5,3-6.3,3.4-8.2,0.6    c-0.2-0.4-1-2-1-2.4V92.7H280.4z" data-index="11" style="visibility: visible;"></path>
		<path d="M91.6,106.8l-3.1-0.1l-0.7-2.5l-4.2,0l-0.9,2.6l-3.1,0l4.6-14.1l3,0.2L91.6,106.8z M85.9,97.3c-0.6-0.1-0.4,0-0.5,0.4    c-0.1,0.5-1.1,3.6-1,3.7l2.4,0L85.9,97.3z" data-index="12" style="opacity: 1;"></path>
		<path d="M239.8,106.8l-3.1-0.1l-0.7-2.5l-4.2,0l-0.9,2.6l-3.1,0l4.6-14.1l3,0.2L239.8,106.8z M234.1,97.3c-0.6-0.1-0.4,0-0.5,0.4    c-0.1,0.5-1.1,3.6-1,3.7l2.4,0L234.1,97.3z" data-index="13" style="opacity: 1;"></path>
		<path d="M299.1,105.4c-7,6.2-13.1-3.1-9.6-9.9c1.5-2.9,5.2-3.9,8.1-2.4c0.6,0.3,1.7,0.9,1.2,1.7c-0.2,0.3-1.6,1.9-1.8,2    c-2.4-3.4-5.5,0.1-5.4,3.2c0.1,3.2,2.9,6.3,5.4,3l0.2,0L299.1,105.4c0,0,0.2-0.1,0.3-0.3c1.3-4.1,2.7-8.2,4.1-12.3l2.9,0.1l4.5,14    l-3.1-0.1l-0.9-2.5l-4.2,0l-0.9,2.6l-3,0C298.8,106.8,299,105.6,299.1,105.4z M305.1,97.3c-0.6-0.1-0.4,0-0.5,0.4    c-0.1,0.5-1.1,3.6-1,3.7l2.4,0L305.1,97.3z" data-index="14" style="opacity: 1;"></path>
		<polygon points="110.3,92.7 110.3,95.6 105.3,95.6 105.3,98.2 110.1,98.2 110.1,101.1 105.3,101.1 105.3,104 110.6,104     110.6,106.8 102.4,106.8 102.4,92.7   "></polygon>
		<polygon points="119.9,92.7 119.9,95.6 114.9,95.6 114.9,98.2 119.7,98.2 119.7,101.1 114.9,101.1 114.9,104 120.2,104     120.2,106.8 112,106.8 112,92.7   "></polygon>
		<polygon points="176.8,92.7 176.8,95.6 171.7,95.6 171.7,98.2 176.5,98.2 176.5,101.1 171.7,101.1 171.7,104 177,104 177,106.8     168.8,106.8 168.8,92.7   "></polygon>
		<path d="M185.9,96.8c-1.4-2.6-4.1-1.2-4.9,1.2c-1,3.1,1,8.3,4.5,5.8c0.3-0.2,0.3-0.8,0.8-0.7l1.8,2.2c-1.8,2.5-5.6,2.8-8,0.9    c-3.5-2.9-3.4-10.8,0.9-13c2.3-1.2,5.5-0.8,7.2,1.2L185.9,96.8z" data-index="15" style="opacity: 1;"></path>
		<path d="M225.7,96.8c-1.4-2.6-4.1-1.2-4.9,1.2c-1,3.1,1,8.3,4.5,5.8c0.3-0.2,0.3-0.8,0.8-0.7l1.8,2.2c-1.8,2.5-5.6,2.8-8,0.9    c-3.5-2.9-3.4-10.8,0.9-13c2.3-1.2,5.5-0.8,7.2,1.2L225.7,96.8z" data-index="16" style="opacity: 1;"></path>
		<polygon points="318.5,92.7 318.5,95.6 315.4,95.6 315.4,106.8 312.5,106.8 312.5,95.6 309.4,95.6 309.4,92.7   "></polygon>
		<polygon points="243.4,92.7 243.4,104 247.8,104 247.8,106.8 240.3,106.8 240.3,92.7   "></polygon>
		<rect x="319.2" y="92.7" width="3.1" height="14.1"></rect>
		<rect x="213" y="92.7" width="3.1" height="14.1"></rect>
		
		<path class="st0" d="M142.4,91.8c1.3-0.1,1.6,1.8,0.9,2.8C141.7,97.1,140.2,92,142.4,91.8z" data-index="18" style="opacity: 1; visibility: hidden;"></path>
		
		<path class="st0" d="M268.4,104v-8.4c2.6-0.2,4.6,0.6,4.8,3.5C273.5,102.6,271.9,104.2,268.4,104z" data-index="20" style="opacity: 1; visibility: hidden;"></path>
		
		<path class="st0" d="M124.2,95.6c4.3-0.6,4.1,3.8,0,3.4V95.6z" data-index="22" style="opacity: 1; visibility: hidden;"></path>
		
		<path class="st0" d="M234.1,97.3l1,4.1l-2.4,0c-0.1-0.1,0.8-3.2,1-3.7C233.7,97.3,233.4,97.2,234.1,97.3z" data-index="24" style="opacity: 1; visibility: hidden;"></path>
		
	</g>
</g>
</svg>