<svg xmlns="http://www.w3.org/2000/svg" xmlns:xlink="http://www.w3.org/1999/xlink" version="1.1" id="Layer_1" x="0px" y="0px" width="331.5px" height="262.5px" viewBox="0 0 331.5 262.5" style="enable-;background-color:transparent;" xml:space="preserve">
<style type="text/css">
	.st0{fill:#FFFFFF;}
</style>
<g>
	<g>
		
		<path d="M104.8,135.8c-1-0.6-1.9-1.9-2.8-2.1c-1.6-0.5-10-0.6-10.7-1.7c-1.7-2.7,3.8-3.3,5.6-3c2.2-0.2-2.2-4.6-2.5-5    c-0.7-1.1-1.2-3.3-1.8-3.8c-1.1-1-8.8-2.5-8.8-4.3c3.6-3.3,8.9-1,7.5-7.9l-15-0.8c-0.2-2-0.1-1.2,1.1-1.5c2.9-0.5,11.3-1,13.1-1.9    c1.2-0.6,2.6-4.8,3-6.4c-1.5-1.4-26.5,5-29.9,0.4c6.1-0.4,12,0,18-1.5c3.1-0.8,7.6-1.6,6.7-5.6c-10.3-1.6-20.4,0.8-30.7,1.5    c-0.2-1.1,1.3-1,2.1-1.3c3.9-1.1,20.5-2.1,21.7-5.2c2.4-5.8-8.1-1.6-10.2-1.2c-11,2-22.3,4.9-33.5,4c-1.3-0.1-2.4,0.2-3.3-1.2    c-0.3-1.9,1.5-1,2.6-1.1c9.3-0.8,23.2-1.2,31.8-3.4c1.7-0.4,9.3-3,4.5-5.3C68.9,75.6,57.2,79,52,79.5c-9.6,1-21.3,2.6-30.7,3    c-2.6,0.1-6.6,0.7-8.6-1.1C17.8,80,24.9,79,27.8,74c3.7-6.4-2.7-5-7.6-6.9c-6.2-2.4-11.6-7.4-13.5-13.9c7.5,1.7,15.4,7,23.2,3.4    C20.3,49.3,9.7,42.2,4.5,30.8c9.6,2.5,19.2,4.8,29.2,5.2C25.6,28.9,11.6,26.1,9,14.3c0.5-0.6,13.3,9.3,11.1,0.6    c-0.4-1.7-3.4-3.3-2.4-5.1C43.9,18.9,74,22.2,99.3,33.6c21.8,9.8,39.9,29.7,63.1,37.7c0.2,1.3-1.8,0.8-2.5,0.7    c-2.1-0.3-4-1.3-6.1-1.4c-10.9-0.8-22.3-0.1-32.5,3.8l2.2,0.7l-2.2,2.2c13-3.8,24.9-5.6,38.4-3.6c6,0.9,12.6,3.7,18.1,4.4    c1.4,0.2,1.6-0.8,1.1-1.4c-0.4-0.5-9.8-3.5-11.7-4.4c-20.1-8.9-33.8-19.7-51.9-31.2c-3.9-2.5-8.7-4.6-12.4-7    c-0.5-0.4-2.2-0.6-1-1.7c0.8-0.7,17.4-2.8,19.8-3c4.5-0.4,12.1-1.3,16.3-0.6c6.6,1.1,12.3,6.7,18,9.7c10.4,5.6,21.9,5.6,32.9,10.5    c19.1,8.4,24.4,22.5,39,34.4c8,6.5,21.5,9.2,25.6,19.4c0.9,2.2,2.3,8.7,2.5,11c0.1,1.1,0.1,1.3-1.1,1.1c-2.7-0.4-8.3-3.2-11.6-4.1    c-2-0.6-12.1-2.3-12.6-2.8c-0.3-0.3-1.5-5.4-2.8-7.3c-6.4-9.2-28.6-13.6-38.1-19.5c-1.3-0.4-1.5,0.6-0.7,1.5    c1.2,1.5,22.7,9.2,26.8,11.3c4.7,2.4,10.1,5.2,12.1,10.4c2.1,5.7,1.4,12.8,6.8,17.2l-4.1-12c13,1.8,24.5,7,35.9,13.1    c14,7.5,34.7,20.6,35.9,38.3c0.1,1.5-0.9,3.1-0.7,4.3c0.3,1.1,3.3,3.3,4.3,4.8c3.4,5.2,3.6,13.8-1,18.2l-6.7-7.5    c-6.9-8.5-27.5-7.8-14,5c0.4,0.4,2.2,0.5,0.6,1.7c-5.9-2.7-11.6-5.8-17.4-8.9c-1.5-0.8-2.3-2.2-3.8-3c-9.2-4.8-24-2.8-34.3-3.1    c-3.7-0.1-10.1-1.9-13.4-1.5c-4.9,0.6-15.5,6.8-19.2,10.5c2.9-0.8,5.3-3.1,7.9-4.4c1.5-0.7,7.9-3.6,9-3.7    c2.9-0.1,15.9,7.4,18.6,9.6c6.5,5.3,10.3,12.1,15.7,18c7.6,8.4,18.1,18.5,27,25.5c7.5,5.9,13.2,10.4,21.8,2.8    c1.8-1.6,2.9-4.9,6-5.6c6.2-1.4,12.4,4.6,13.7,10.4c-3.1-0.7-3.5-3.7-7.1-3.8c-2-0.1-6.4,1.3-6.3,3.8c10.2-1,16.4,6.8,9,15    c0-1.8,0.4-5.8-1.3-6.8c-0.3-0.2-7-2.7-7.5-2.8c-1.2-0.2-6.2-0.6-6.2,1c0,0.8,7.4,7.4,4.5,11.6c-2.7,0.1-1.8-2.8-3.3-4.5    c-1-1.1-6-3.9-7.5-3.7c-1.2,0.1-3.6,2.2-5.5,2.8c-5,1.7-12.5,2.1-17.7,1.7c-3-0.2-10.9-3.1-12.7,0c-0.9,1.5,0.5,6.8-1.5,6    c-3.2-1.3-4.6-8.6-1.4-11.2c5.3-4.3,18.8,0.7,12.2-10.9l-41.9-4.9c-1.1-1.1,0.1-1.4,1.1-1.5c5.2-0.7,13.5,0.4,18.5-2.2    c1.8-0.9,0.9-2.9-0.6-3.8c-6.1-3.9-18.5,1.8-25.8,0c-3.4-3,12.1-2.2,13-2.3c6.9-1,4.1-4.6-1.5-5.2c-7.3-0.8-16.1,1.2-23.2-0.7    c-1-0.3-2.3-0.1-2.6-1.5c4.4,0.1,9.1-0.1,13.3-1.3c1.2-0.3,8.2-2.7,6.1-4.7c-11.5,0.2-23-1.1-34-4.5c-1.6,7.5-10.6,18.4-7.4,26.1    c1.1,2.6,6.3,3.4,8.9,3.2c5.5-0.5,22.3-13.3,22.4-1.9c0,0.8-0.9,6.1-1.1,6.4c-1.8,1.8-1.9-3.6-2.7-3.8c-2-0.5-12.8,0.1-13,2.7    c3.1,7.3,12.8,2.7,17.6,7.1c3.7,3.5,3.5,10.2-1.1,12.8c1.1-2.5,0.9-8.2-2.6-8.2h-11.6c-0.1,2,2.1,2.7,2.7,4.5c1.3,4.2-2,7.3-6,7.6    c-3.4,0.2,1.6-3.5,1.7-4.1c0.3-3.7-14.3-10.6-17.7-11.3c-7.9-1.6-20.4-2-18.8,9.4c-7.4-4.6-6.5-10.5,0.4-15    c2.6-1.7,5.4-1.2,7.5-4.5c1.2-2,1.8-6.3,1.1-8.5c-1-3.1-16.6-2-18.6-5.7c1.9-0.4,10.2,1,11.2,0c0.2-0.2,0-1.7-0.4-2.3    c-2.4-4.2-20.1-7.6-25.1-8.2l8.5-2.2c1.8-4-5.5-4-8.3-5.2c-0.9-0.4-3.7-1.6-3.2-3.1c2.3-0.4,4.3,1.2,6.4,1.4    c2.2,0.3,13.8,0.8,15.2-0.1c0.4-0.3,1.3-2.6,0.2-3.3c-0.9-0.6-8.7-1-11.1-1.6c-0.8-0.2-9.2-3.1-7.6-4.7c4.4,1,9.5,2.5,13.9,2.9    c3.8,0.3,8.9,1.2,10.8-2.9l-6-3.4c0-0.8,6.7-1.7,6-4.9l-21.7-6.8l0-2.2c5.7-0.2,16.9,0.5,12.6-8.5c-4.4-9-16.9-6.3-24.5-10.3    l1.5-3c-4.3-0.6-9.2-3.9-12.9-0.1c-1.6,1.7-2.3,10.5-0.1,10.5h12.7c1.5,0,1.4,10,2.4,11.9l4.7,8.4c-14.1-2.1-30.4,7.5-41.9-3.7    h16.8c3.5,0,12-3.5,10.8-8.2c-5.5,0.5-10.5,3.3-16.1,3.8c-8.1,0.7-15.7-1.8-23.6-3c0.3-1.4,1.5-1.4,2.6-1.5    c6.1-0.7,13.3,0.6,18-4.5l-0.7-1.5L81.2,162c-5.7-1.2-11.5-0.5-17-2.5l-7.3-2.8c5.7-0.4,16,0.4,21.1-1.7c1-0.4,5.2-4.3,4.3-5.1    l-21.2-0.8c-2.9-0.7-5.8-1.1-8.7-1.8c-1.4-0.4-9.3-2.9-9.7-3.4c-1-1.1,0-1.4,1.1-1.5c3.4-0.4,6.8,0.6,9.7,0.6    c12.2-0.1,25.2-1.3,37.3-3c2.2-0.3,14.4-2,14.7-3.3C105.3,136.5,104.9,136.1,104.8,135.8c3.6,2.2,6.7,5.1,10.6,7    c11.2,5.7,22.7,6,34.8,7.9l24.4,42.7l3.1,0.1c14-22.1,26.4-45.3,41.3-66.8c2.8-2.5,6.2-4.6,10.1-4.5l0-2.2h-31.1    c-0.1,0-1.5,1.1-0.8,1.5c1.5,2.1,14.3-1.7,12.2,8.5c-0.8,3.9-18.4,33.1-21.7,37.5c-0.6,0.9-1.2,2.1-2.5,2l-13.1-23.6    c5.5-3.8,15.5-5.4,13.4-13.9l-11,7.4l-5,2.4c-1.3-3.4-8.4-12.6-8.7-15.5c-0.7-6.6,11.6-1.6,12-6.3h-46.4l0,2.2    c8-0.8,10.5,6.2,14.1,11.8l5.4,10c-22-1.4-28.7-27.6-22.7-45.6c7.7-23,43.4-25.7,57-7.2c1.2,1.6,3.6,7.4,4,7.6    c0.7,0.4,2,0,2.9,0.1V74.2c-4-0.8-2.4,1.4-4.4,3.4c-1.1,1.1-2.6,1.8-4.2,1.9c-4.7,0.2-13.5-3.5-18.9-4.3    c-28.2-4.3-74.4,12.4-62.3,48.2C99,128.5,103.7,132.3,104.8,135.8z M86,32.3L27.7,16.5c0.6,1.1,3.3,2.2,4.5,2.6    c2.5,0.9,4.9,2.1,6.9,2.9c2,0.8,6.5,2.7,8.2,3c2,0.4,1.8-1.2,3.5-1c0,0.6-0.2,1.7,0.1,2.1c0.5,0.6,14.7,4.1,15.4,3.7    c0.2-0.1,0.2-1.2,0.5-1.3c2.3-0.7,1.8,1.7,3.5,2.5c2.1,1,10.2,1.7,13,2C84.4,33,86.2,33.6,86,32.3z M75.6,39.8L20.2,23.3l8.7,5.2    c5.2,1.1,9.4,4.9,14.8,6.1c1.6-4,1.7-0.1,3.4,1c1.1,0.7,12.9,4,13.8,3.9c0.8-0.1,1.5-1.4,2.2-2c1.6,3.6,6.3,3.1,9.7,3    C73.9,40.5,75.8,41.1,75.6,39.8z M154.1,39.8c-4.9-1.5-9.2-6-14-7.3c-6.9-1.9-14.1-0.4-21.1-0.2c-0.6,3,3.7,0.6,5.6,0.7    c5.3,0.2,12.6,1,17.6,2.7c3.1,1,6.6,3.4,9.7,4.5C152.6,40.4,154.3,41.1,154.1,39.8z M69.6,48L13.5,36c2,2,7.9,5.8,10.5,6.4    c1.5,0.4,2.7-0.5,3.3-0.3c0.8,0.2,0.8,1.7,1.7,2.1c0.8,0.3,10.4,3.1,11,3.1c0.7-0.1,0.8-1.9,1.6-2.3c1.8,3.9,8.7,4.3,12.7,4.5    c4.3,0.2,5.1-2.6,7.4,0.1L69.6,48z M135.1,36.8c-3.8-0.5-8.4,0.4-12.3,0l10.4,2c7.2,1.7,14,5.7,21.4,6.3c0.6,0,2.7,0.2,1.5-0.8    C149,43.5,142.1,37.6,135.1,36.8z M165.4,51c-12.6-1.4-23.6-9.2-36.7-7.5l8.8,2c8.9,2.9,15.6,6.6,25.2,6.2    C163.7,51.7,165.5,52.3,165.4,51z M66.6,54.8c-15.1-0.6-30.2-2.4-44.1-8.3c3,2.8,11.9,7.7,15.7,7.9c1.1,0.1,1.7-1.2,2.5-1.1    c0.8,0.1,1.9,1.6,3.3,2c4.5,1.1,13.6,1.1,18.4,0.8C63,56.2,66.6,55.8,66.6,54.8z M208.8,67.5c-9.7-9.7-21.3-20.2-35.9-20.2    l8.4,2.4C192,53.3,198.2,63.6,208.8,67.5z M66.6,62.3c-16.2,1.3-33.5,1.5-49.4-2.3c1.9,3.5,6.4,2.8,9,3.5    c6.8,1.8,11.1,2.5,17.5,3.3c4.7,0.6,9.4-1.2,13.7-2C60.1,64.3,64.7,64.9,66.6,62.3z M187.1,72.7c-1.1-2.7-4.4-2.3-6.7-3    C180.4,72.8,185.1,73,187.1,72.7z M67.3,72c-11.1,2.8-22,2.3-33.3,2.2l-4.8,4.5c11-2.2,23-1.5,33.8-4.7C64.1,73.7,66.9,73,67.3,72    z M252.2,111.7c0.6-9.4-6.1-16.2-14.2-19.5c4,4.3,10.4,9.1,11.2,15.4c0.3,2.5-5.7-0.1-7.2-0.3c-0.8-0.1-2.7-0.6-2.5,0.7    C243.8,108.5,248.3,109.8,252.2,111.7z M172.9,118.5c-0.1-0.9-2.9-3-3.4-3h-45.6c-1.9,0-0.1,3,0.7,3H172.9z M229.7,118.5    c-0.2-0.7-3.1-3-3.4-3h-33.3c-0.9,0.9,2.4,3,2.6,3H229.7z M133.9,129.7c2.3-3.1-7.1-1.2-7.5-0.7    C123.9,131.8,133.1,130.9,133.9,129.7z M142.2,141.7c-1.6-2.9-6.1-3.2-9-4.5C135.1,139.8,139.1,141.3,142.2,141.7z M289.6,158.2    c-5.1-5.5-8.6-14.7-16.5-16.5c0.9,1.6,5.5,3,5.9,5c0.3,1.4-5.7,4-1.9,9.3C280.4,160.4,285,158.8,289.6,158.2z M98.8,144.8    c-8.5-2-16.1,0.1-24.3,0.7c-3.6,0.3-7.8-0.4-11.2,0c-1.1,0.1-2.3,0.6-1.1,1.5l19.8,0L98.8,144.8z M71.8,159h16.1    c2.7,0,10-3,12.3-4.9l-1.1-0.4L71.8,159z M112.2,165l-6.3-0.7L94.3,168l11.5-0.8L112.2,165z M128.7,176.2    c-0.6-1.8-2.6-1.6-4.1-1.5l-24.3,3.8c1.1,0.2,2.2,0.8,3.4,0.8C111.5,179,120.5,175.6,128.7,176.2z" data-index="1" style="opacity: 1; visibility: visible;"></path>
		<path d="M72.6,78.8c0.4,2.3-0.7,1.1-1.8,1.6c-1.3,0.5-2.6,0.9-3.9,1.4l-32.5,3l3-1.1l-3-1.1c4.3-1.2,8.8-0.3,13.1-0.8    C55.9,80.9,64.1,78.3,72.6,78.8z" data-index="2"></path>
		<path d="M116.7,168.8c-3.3,4.9-11.1,3.9-16.5,4.5c-0.2-1.1,1.4-0.9,2.2-1.1C107.3,171.1,112,170,116.7,168.8z" data-index="3"></path>
		<path class="st0" d="M69.6,48l-7.9,1.6c-2.3-2.7-3.1,0.2-7.4-0.1c-4.1-0.2-10.9-0.6-12.7-4.5c-0.8,0.4-0.9,2.2-1.6,2.3    c-0.6,0-10.2-2.7-11-3.1c-1-0.4-0.9-1.9-1.7-2.1c-0.6-0.2-1.8,0.7-3.3,0.3c-2.6-0.6-8.5-4.4-10.5-6.4L69.6,48z" data-index="4"></path>
		<path class="st0" d="M172.9,118.5h-48.3c-0.8,0-2.6-3-0.7-3h45.6C170,115.5,172.7,117.6,172.9,118.5z" data-index="5"></path>
		<path class="st0" d="M86,32.3c0.2,1.3-1.7,0.7-2.5,0.7c-2.8-0.3-11-1-13-2c-1.7-0.8-1.3-3.1-3.5-2.5c-0.3,0.1-0.3,1.2-0.5,1.3    c-0.7,0.4-14.9-3.1-15.4-3.7c-0.3-0.4-0.1-1.5-0.1-2.1c-1.7-0.1-1.6,1.4-3.5,1c-1.8-0.4-6.2-2.3-8.2-3c-2-0.8-4.4-1.9-6.9-2.9    c-1.2-0.4-3.9-1.5-4.5-2.6L86,32.3z" data-index="6"></path>
		<path class="st0" d="M75.6,39.8c0.2,1.3-1.7,0.7-2.6,0.7c-3.5,0.1-8.1,0.7-9.7-3c-0.7,0.5-1.4,1.9-2.2,2    c-0.9,0.1-12.8-3.2-13.8-3.9c-1.7-1.1-1.8-5-3.4-1c-5.4-1.2-9.7-5-14.8-6.1l-8.7-5.2L75.6,39.8z" data-index="7"></path>
		<path class="st0" d="M66.6,62.3c-1.9,2.7-6.5,2-9.2,2.5c-4.3,0.8-9,2.6-13.7,2c-6.5-0.9-10.7-1.5-17.5-3.3c-2.6-0.7-7.1,0-9-3.5    C33.1,63.7,50.4,63.6,66.6,62.3z" data-index="8" style="visibility: visible;"></path>
		<path class="st0" d="M229.7,118.5h-34c-0.2,0-3.5-2.1-2.6-3h33.3C226.6,115.5,229.5,117.8,229.7,118.5z" data-index="9" style="visibility: visible;"></path>
		<path class="st0" d="M66.6,54.8c0,1-3.6,1.4-4.2,1.4c-4.8,0.3-13.9,0.3-18.4-0.8c-1.4-0.4-2.5-1.9-3.3-2c-0.9-0.1-1.5,1.1-2.5,1.1    c-3.8-0.2-12.7-5.2-15.7-7.9C36.4,52.3,51.5,54.1,66.6,54.8z" data-index="10"></path>
		<path class="st0" d="M289.6,158.2c-4.6,0.6-9.2,2.2-12.4-2.2c-3.9-5.3,2.2-7.9,1.9-9.3c-0.4-1.9-5-3.3-5.9-5    C281,143.6,284.5,152.7,289.6,158.2z M285.1,156l-3-6C276.5,152,280.4,156.9,285.1,156z" data-index="11"></path>
		<path class="st0" d="M67.3,72c-0.4,1-3.3,1.7-4.3,2c-10.8,3.2-22.8,2.5-33.8,4.7l4.8-4.5C45.4,74.4,56.3,74.8,67.3,72z" data-index="12"></path>
		<path class="st0" d="M165.4,51c0.2,1.3-1.7,0.7-2.6,0.7c-9.7,0.4-16.4-3.3-25.2-6.2l-8.8-2C141.8,41.8,152.8,49.6,165.4,51z" data-index="13"></path>
		<path class="st0" d="M208.8,67.5c-10.6-3.9-16.8-14.2-27.5-17.8l-8.4-2.4C187.5,47.2,199.1,57.7,208.8,67.5z" data-index="14"></path>
		<path class="st0" d="M154.1,39.8c0.2,1.4-1.6,0.7-2.3,0.4c-3.1-1.1-6.7-3.5-9.7-4.5c-5-1.7-12.3-2.5-17.6-2.7    c-1.9-0.1-6.1,2.3-5.6-0.7c7-0.2,14.2-1.7,21.1,0.2C145,33.8,149.3,38.3,154.1,39.8z" data-index="15"></path>
		<path class="st0" d="M98.8,144.8L81.9,147l-19.8,0c-1.2-0.9,0-1.4,1.1-1.5c3.5-0.4,7.6,0.3,11.2,0    C82.6,144.8,90.3,142.7,98.8,144.8z" data-index="16"></path>
		<path class="st0" d="M252.2,111.7c-3.9-1.9-8.4-3.2-12.7-3.8c-0.2-1.3,1.8-0.8,2.5-0.7c1.5,0.2,7.5,2.8,7.2,0.3    c-0.8-6.3-7.2-11.1-11.2-15.4C246.1,95.5,252.8,102.4,252.2,111.7z" data-index="17"></path>
		<path class="st0" d="M135.1,36.8c7,0.9,13.9,6.7,20.9,7.5c1.2,1-0.9,0.8-1.5,0.8c-7.4-0.6-14.2-4.6-21.4-6.3l-10.4-2    C126.6,37.1,131.3,36.3,135.1,36.8z" data-index="18"></path>
		<path class="st0" d="M71.8,159l27.3-5.3l1.1,0.4c-2.4,1.9-9.6,4.9-12.3,4.9H71.8z" data-index="19"></path>
		<path class="st0" d="M128.7,176.2c-8.2-0.6-17.2,2.7-25.1,3c-1.2,0-2.2-0.6-3.4-0.8l24.3-3.8C126.1,174.7,128.2,174.4,128.7,176.2    z" data-index="20"></path>
		<polygon class="st0" points="112.2,165 105.8,167.2 94.3,168 106,164.3   "></polygon>
		<path class="st0" d="M133.9,129.7c-0.9,1.2-10,2-7.5-0.7C126.9,128.6,136.3,126.6,133.9,129.7z" data-index="21"></path>
		<path class="st0" d="M142.2,141.7c-3.1-0.4-7-1.9-9-4.5C136.1,138.5,140.5,138.9,142.2,141.7z" data-index="22"></path>
		<path class="st0" d="M187.1,72.7c-2,0.2-6.7,0-6.7-3C182.7,70.5,186,70,187.1,72.7z" data-index="23"></path>
		<path d="M285.1,156c-4.7,0.9-8.6-4-3-6L285.1,156z" data-index="24"></path>
	</g>
</g>
</svg>