<?xml version="1.0" encoding="UTF-8" standalone="no"?>
<!-- Generator: Adobe Illustrator 29.8.2, SVG Export Plug-In . SVG Version: 9.03 Build 0)  -->

<svg
   version="1.1"
   id="Layer_1"
   x="0px"
   y="0px"
   width="950.14349"
   height="272.83163"
   viewBox="0 0 950.14349 272.83163"
   xml:space="preserve"
   sodipodi:docname="2.svg"
   inkscape:version="1.4.2 (f4327f4, 2025-05-13)"
   xmlns:inkscape="http://www.inkscape.org/namespaces/inkscape"
   xmlns:sodipodi="http://sodipodi.sourceforge.net/DTD/sodipodi-0.dtd"
   xmlns="http://www.w3.org/2000/svg"
   xmlns:svg="http://www.w3.org/2000/svg"><defs
   id="defs46" /><sodipodi:namedview
   id="namedview46"
   pagecolor="#ffffff"
   bordercolor="#000000"
   borderopacity="0.25"
   inkscape:showpageshadow="2"
   inkscape:pageopacity="0.0"
   inkscape:pagecheckerboard="0"
   inkscape:deskcolor="#d1d1d1"
   inkscape:zoom="0.808"
   inkscape:cx="475.24752"
   inkscape:cy="137.37624"
   inkscape:window-width="1920"
   inkscape:window-height="1010"
   inkscape:window-x="-6"
   inkscape:window-y="-6"
   inkscape:window-maximized="1"
   inkscape:current-layer="Layer_1" />
<g
   id="g46"
   transform="translate(-24.991509,-363.18192)">
	<g
   id="g45">
		<path
   d="m 447,548 c -1.6,-1.6 12.8,-25.6 14.5,-29 17.5,-33.9 34,-68.2 48.5,-103.5 l 26,-0.4 11,78.3 2.5,0.7 c 12.3,-17.2 26.2,-33.2 38.9,-50.1 5,-6.6 12.6,-20.4 17.6,-25.4 0.7,-0.7 5.1,-3.5 5.5,-3.5 H 634 l -26.5,133 H 567 l 16,-69 -5.5,5 -47.8,62.7 -16.7,1.2 -10.5,-71 -31,71 z"
   id="path1" />
		<path
   d="m 911,401 -47.5,146 c -0.7,1.1 -1.9,0.9 -3,1 -3.5,0.4 -31.9,0.6 -33.4,-0.3 -0.6,-0.3 -0.7,-2.5 -1.7,-2.8 -0.6,-0.2 -8.5,4 -11.2,4.7 -31.9,7.8 -44.4,-16.9 -37.7,-44.7 7.3,-30.6 34.2,-64.4 68.9,-59.9 3.4,0.4 10.8,4.4 13.6,2.5 2.2,-1.5 11.9,-40.8 13,-46.6 h 39 z m -72.3,61.2 c -13.4,3.1 -23.8,36.7 -26.2,48.8 -1.3,6.6 -4.5,19.3 5.3,20.8 11.5,1.9 20.7,-18.9 24,-27.6 3.2,-8.6 16.5,-46.5 -3.1,-42 z"
   id="path2" />
		<path
   d="m 711,533 c 0.4,15.3 -24.9,20 -35.4,14.9 -4.2,-2.1 -4.6,-4.7 -8.1,-6.9 -23.9,16.7 -58.6,11.2 -44.4,-25.3 4.1,-10.5 11.6,-17.6 21.9,-22.1 9.9,-4.4 25.4,-5.8 33.7,-10.3 7.2,-3.9 11.1,-14.9 3.2,-19.6 -9.1,-5.5 -24.3,6.9 -30.4,13.4 -2.4,0 -2.5,-14.3 1,-18 7.9,-8.2 32.7,-14.7 44,-14 15.4,0.9 26.1,5.1 24.2,22.2 -1.9,17.9 -16.5,42 -17.7,58.3 -0.5,6.6 1.6,7.6 8,7.4 z m -33,-38 c -0.6,-0.6 -10.1,3.4 -11.3,4.1 -9.1,5.7 -18.4,36.8 -2.9,30.1 7.4,-3.2 12.1,-26.4 14.2,-34.2 z"
   id="path3" />
		<path
   d="m 417.9,452.1 c 0.4,1.3 -0.2,2.5 -0.7,3.6 -2.8,6.2 -11.1,14.2 -13.8,21.3 -3.7,1.1 -3.3,-4.9 -4.4,-7.6 -7.1,-16.4 -29.5,-9.2 -27,4 1.3,6.9 24.2,9.6 29.2,20.9 5.9,13.3 -2.3,30.8 -12.2,40.2 -14.2,13.5 -30.1,17.4 -49.4,15.4 -4.8,-0.5 -22.1,-4.7 -20.4,-11.1 3,-2.3 11.2,-21.2 12.3,-21.8 0.4,-0.2 2.7,-0.4 2.5,0.6 0.9,14.2 22,20 32,11.8 12.6,-10.4 -13.8,-17.8 -20,-22.9 -20.9,-17.3 -0.1,-47.8 19.3,-56.7 17.5,-8 35.5,-5.1 52.6,2.3 z"
   id="path4" />
		<path
   d="m 975,452 c 1.7,2 -13.2,20.9 -14,25 -2.3,2 -3.4,-6 -4.1,-7.4 -4.8,-9.5 -15.1,-13.8 -23.9,-6.1 -15.6,13.5 14.3,19.1 21.4,25.7 10.3,9.5 5.1,27 -1.5,37.2 -14.5,22.1 -47.6,30.4 -71.2,18.6 -2,-1 -6,-2.9 -4.9,-5.5 2.9,-6.8 9.6,-15.1 12.8,-22.3 l 6.4,10.5 c 5.2,7 26.9,8.2 29.6,-0.5 0.8,-2.5 1.1,-6.5 -0.5,-8.6 -3.1,-4.3 -18.3,-8.4 -23.6,-13.4 -13.2,-12.6 -3.2,-36.3 8.5,-46.5 18.8,-16.7 43,-16 65,-6.7 z"
   id="path5" />
		<path
   d="m 752,548 h -38 l 31.9,-99.3 c 2.8,-3 6.3,-0.7 9.5,-0.6 6.7,0.1 13.4,0.2 20.1,0 2.6,-0.1 7.5,-2.2 8.4,0.6 0.7,2.2 -7.5,20.8 -8.9,24.8 -8.6,24.5 -16.3,49.4 -23,74.5 z"
   id="path6" />
		<path
   d="m 33.7,590.2 182.8,-0.3 c 12.9,0.4 4.8,13.8 -2.5,16.6 -8.2,3 -32.5,1.6 -42.5,1.5 -41.9,-0.4 -84,-1.3 -126,-1.1 -5.5,0 -19.4,3.7 -20.4,-4.6 -0.8,-6.1 2.9,-10.3 8.6,-12.1 z"
   id="path7" />
		<path
   d="m 38.7,619.2 149.3,0.3 2,2.1 c 0.2,1.4 -12.9,14.9 -16.4,14.4 L 42,635.5 C 37.7,633.3 32.7,621 38.7,619.2 Z"
   id="path8" />
		<path
   d="m 337.7,401.2 c 8.9,-1.5 17.3,0.4 19,10.5 1.4,8.2 -2.3,13.3 -7.2,19.3 -5.5,6.7 -21.9,23.5 -28.5,28.5 -2.7,2.1 -8.6,3.8 -9.9,-0.2 -1.8,-5.4 13,-18.3 10.7,-25.6 -0.6,-1.9 -3.2,-2.8 -3.7,-6.3 -1.9,-11.2 8.7,-24.3 19.6,-26.2 z"
   id="path9" />
		<path
   d="m 52.7,533.2 67.8,-0.3 3.5,1.4 c 3.1,3.9 -1.6,15.2 -6.8,16.4 -12,2.7 -50.7,2.5 -63.8,1.2 -1.8,-0.2 -5.8,-0.9 -7.1,-1.9 -3.8,-3.1 0.8,-16 6.4,-16.8 z"
   id="path10" />
		<path
   d="m 173.7,533.2 70.8,0.7 c 5.1,3.6 -0.8,16.7 -7.1,17 -21.1,-1.9 -47.5,2.8 -68,0.1 -1.7,-0.2 -3,-0.4 -4,-2 -1,-6 1.7,-14.4 8.3,-15.8 z"
   id="path11" />
		<path
   d="m 196.5,477 h 71 c 3.8,0 2.2,15.5 -6.4,17.6 -21,-0.6 -44.9,2.3 -65.6,0.5 -2,-0.2 -3.8,-0.2 -5.5,-1.5 -3.4,-3.5 1.4,-15.4 6.5,-16.6 z"
   id="path12" />
		<path
   d="m 235.2,380.8 c -3.2,-3.1 2.2,-17 8.3,-16.7 20.2,1.9 45.5,-2.7 65,-0.1 9.3,1.2 3.1,18.3 -5.1,18 -20.3,-1.2 -42.9,1.8 -63,0.1 -1.5,-0.2 -4,-0.2 -5.2,-1.3 z"
   id="path13" />
		<path
   d="m 289.9,422.1 c 1,7.3 -1.7,14.3 -9.4,15.8 -20.5,-1.6 -44.9,2.4 -65,0.1 -1.4,-0.2 -2.7,-0.3 -3.9,-1.1 -4,-2.7 1.5,-15.5 7,-15.9 21.5,1.1 44.7,-1.6 66,-0.1 1.8,0.2 3.6,0.4 5.3,1.2 z"
   id="path14" />
		<path
   d="m 233.8,563.2 c 1.7,6.7 -1.9,14.6 -9.4,15.7 -19.2,2.7 -44.1,-1.9 -63.9,0.1 -11,-0.7 -5,-16.2 3.1,-17 21.2,1.1 44,-1.7 65,-0.1 1.8,0.2 3.6,0.2 5.2,1.3 z"
   id="path15" />
		<path
   d="m 208.7,449.2 c 11.3,-1.9 52.9,-1.6 64.8,-0.3 10.7,1.2 3.8,16.6 -4.1,16.9 -20.5,-1.6 -44.9,2.4 -64.9,0.1 -10.2,-1 -4.4,-15.2 4.2,-16.7 z"
   id="path16" />
		<path
   d="m 188.8,505.3 c 12.3,-1.9 49.8,-1.6 62.7,-0.3 1.4,0.1 4.5,0.7 5.5,1.5 3.2,2.7 -1.9,15.8 -7.6,15.5 -20.7,-2 -46.9,2.8 -67,0.1 -2.1,-0.3 -3.5,-0.6 -4.3,-2.8 0.2,-7.4 3,-12.8 10.7,-14 z"
   id="path17" />
		<path
   d="m 59.5,522 -1.3,-1.7 c -1,-10.8 3,-14.6 13.3,-15.4 15.5,-1.1 41.7,-1.3 57.1,0 2,0.2 6.6,0.5 7.3,2.7 1.3,3.9 -2.8,14.4 -7.4,14.4 z"
   id="path18" />
		<path
   d="m 42.5,562 h 68 c 4.3,0 2.1,14.5 -6.4,16.6 -19.2,-0.3 -40.6,1.9 -59.6,0.5 -14.7,-1.2 -10.3,-10.5 -2,-17.1 z"
   id="path19" />
		<path
   d="m 301.9,394.1 c -0.3,10.1 -2,14.7 -12.5,15.7 -12.5,1.2 -31.2,-1.1 -44.9,-0.9 -5.2,0.1 -17.1,2.8 -21.5,-0.4 -3.4,-2.5 2.2,-16.1 7.6,-15.5 21.5,1.1 44.7,-1.6 66,-0.1 1.8,0.2 3.6,0.4 5.3,1.2 z"
   id="path20" />
		<path
   d="m 780.8,400.3 c 3.8,-0.1 10,2.1 12.1,5.4 11.1,17.1 -22.3,43.6 -34.9,27.9 -10.7,-13.5 8.3,-32.9 22.8,-33.3 z"
   id="path21" />
		<path
   d="m 738,609 h -11 c 1.8,-5.6 4.6,-12 5.8,-17.7 0.8,-4.2 -0.2,-6.3 -4.3,-3.3 -3.4,2.5 -5,16.5 -6.5,21 h -10 c 1.2,-6.5 5.2,-14.1 6,-20.6 0.3,-2.9 -3.4,-1.2 -4.5,-0.5 -3.8,2.4 -5.5,16.3 -6.5,21 h -10 l 7.1,-26.9 c 3.4,-0.9 7.2,0.4 10.4,0.4 1.9,0 3.4,-1.5 5.7,-1.3 3.2,0.3 5.9,3.8 6.2,3.8 1,0 5.9,-7.4 13,-2 6.7,5.1 -2.3,18.9 -1.4,26.1 z"
   id="path22" />
		<path
   d="m 294,609 6,-22 c -9,-3 -9.2,21.4 -11.6,22.1 L 279,609 c 1.2,-6.5 5.2,-14.1 6,-20.6 0.3,-2.9 -3.4,-1.2 -4.5,-0.5 -3.7,2.4 -5.7,16.4 -6.5,21 h -9.9 l 6.9,-26.6 c 2.1,-1.5 8,0.1 10.6,0.1 1.9,-0.1 3.4,-1.5 5.7,-1.3 3.2,0.3 5.9,3.8 6.2,3.8 0.2,0 2,-2.2 3.2,-2.7 6,-2.7 12.5,0 12.3,7.2 0,1.6 -3.9,17.8 -4.5,18.6 -1.5,2 -7.9,0.6 -10.5,1 z"
   id="path23" />
		<path
   d="m 934,569 -10,40 c -12.6,-0.5 -26.4,5.1 -24,-13.5 1.2,-9.7 11.6,-17.6 21,-12.5 l 3,-14 z m -16.1,17.1 c -7.7,-4.1 -10.6,16.9 -7.8,18.8 5.8,3.9 11,-16.7 7.8,-18.8 z"
   id="path24" />
		<path
   d="m 749,621 -11,0.5 10.5,-38.5 c 1.6,-2.3 8.5,-0.4 11.1,-0.4 4.4,-0.2 6.2,-3.8 11,1.4 9.1,10 -5.3,32.4 -18,23.1 z m 10.7,-34.9 c -4.3,1.1 -8.7,17.2 -4.1,18.8 7.4,2.6 12.3,-20.9 4.1,-18.8 z"
   id="path25" />
		<path
   d="m 356,569 -6,22 c 7.2,-4.1 9.1,-11.4 19,-9 l -12.9,10.6 5.9,16.4 -10.1,-0.4 -3,-9.6 c -3.3,1.1 -1.9,8.1 -3.9,9.6 l -10,0.4 11,-40 z"
   id="path26" />
		<path
   d="m 405,608.9 h -11 c 1.8,-5.6 4.8,-11.9 5.7,-17.8 0.3,-1.9 1.4,-4.4 -1.3,-4.3 -7.8,0.4 -7.9,16 -10.4,21.6 l -10,0.6 7,-27 c 3.7,-0.8 8,0.7 11.4,0.7 1.8,0 3.4,-1.7 5.9,-1.5 13.4,1.2 2.2,20.3 2.7,27.7 z"
   id="path27" />
		<path
   d="m 683.8,581.2 c 21.1,-1.1 15.4,28.5 -4.3,28.6 -19.9,0 -14.3,-27.6 4.3,-28.6 z m -1.1,3.9 c -5.2,1.3 -10.4,20.9 -2.2,20.9 6.1,0 11.5,-23.2 2.2,-20.9 z"
   id="path28" />
		<path
   d="m 332.3,604.8 c 0.2,0.4 2.7,0.2 1.7,3.2 -2.8,0.9 -5.4,1.4 -8.4,1 -1.2,-0.2 -2.3,-1.5 -3.1,-1.6 -1.9,-0.1 -8.6,4 -12,0.7 -3.8,-14.4 8,-12.3 14.5,-16.6 6.9,-4.7 -3.5,-7.8 -7.9,-2.4 -1.9,-7.9 16,-10 18.5,-5 2.3,4.5 -5.3,17 -3.3,20.7 z M 325,595 c -4.9,-0.7 -8.2,6.7 -4.5,10 3.1,-2.4 3.8,-6.4 4.5,-10 z"
   id="path29" />
		<path
   d="m 850.3,604.8 c 0.2,0.4 2.7,0.1 1.7,3.2 -2.7,0.7 -6.5,1.7 -9.3,1 -0.8,-0.2 -0.7,-2 -1.2,-2 -1.2,0 -3.5,1.9 -6,2.1 -10.9,1.1 -9.3,-10.5 -2.2,-14.2 1.4,-0.7 16.9,-4.1 10.7,-8.3 -4.1,-2.8 -7.9,3.8 -9,2.5 -1.9,-7.9 16,-10 18.5,-5 2.5,4.7 -5.1,17.2 -3.2,20.7 z M 843,595 c -4.9,-0.4 -6.5,4.9 -6,9 l 3.9,-0.1 z"
   id="path30" />
		<path
   d="m 580,596 h -14.5 c -6,10.2 4,11 11,6 1.3,10.3 -19.3,10.2 -21.3,1.3 -1.8,-7.8 1.5,-17.1 9.1,-20.5 10.3,-4.6 19.9,1.7 15.7,13.2 z m -8.1,-10.9 c -5.2,-1.4 -6,4 -6.9,7.9 l 7.6,-0.9 c 1.2,-1.8 0,-5.1 -0.7,-7 z"
   id="path31" />
		<path
   d="m 524,596 h -16 c -0.1,3 -1.3,6 1,8.5 1.4,0.9 3.7,0.5 5.3,0.2 1.5,-0.3 8,-4.6 6.7,-1.3 -3.9,10 -23.9,8.4 -22.8,-5.7 1.6,-19.1 30.2,-24.1 25.8,-1.7 z m -8.2,-3.1 c 1.1,-2.3 2,-5.1 -0.3,-6.9 l -3,-0.9 -3.5,7.9 z"
   id="path32" />
		<path
   d="m 882,596 c -0.8,3.1 -2.3,6.3 1,8.5 4.9,2.4 7.7,-2.3 12,-2 -2.6,9.6 -19.4,9.7 -22.3,0.3 -3.1,-9.9 5.4,-21.6 15.8,-21.6 8.2,0 12.5,8.1 8,14.8 z m 8,-3 c 1.7,-11.9 -7,-9.5 -7,0 z"
   id="path33" />
		<path
   d="m 506,569 -3,9 -4.3,-2.8 c -1.9,0.8 -5.4,4.5 -2.7,6.3 l 6,1 -1,3.5 -3.4,-1 c -2.4,0.7 -6.7,20.3 -6.6,23.9 h -11 c 2,-6.9 6.1,-15.5 7,-22.5 0.4,-3.2 -2.5,0.2 -3,-0.5 -2.1,-3 3.5,-3.9 4.5,-5 0.8,-0.9 0.9,-3 1.7,-4.3 4.2,-6.5 7.6,-8.4 15.8,-7.6 z"
   id="path34" />
		<path
   d="m 793,569 -10,40 h -11 l 11,-40 c 3.6,1.6 6.3,0.2 10,0 z"
   id="path35" />
		<polygon
   points="538,609 549.6,569.1 559,569 548.1,608.4 "
   id="polygon35" />
		<polygon
   points="451,609 462.6,569.1 472,569 460.9,608.9 "
   id="polygon36" />
		<path
   d="m 873,574 -2,8 2.9,0.1 0.1,3.8 c -7.5,-0.9 -6.9,12.8 -8.5,18.1 l 2.9,1 0.7,2.5 c -23.7,10.4 -6.4,-18.6 -9.1,-21.4 l -3,-0.1 c 1.3,-3.7 0.5,-4.5 4.9,-4.1 l 1.3,-5.7 z"
   id="path36" />
		<path
   d="m 624,590 c -1.7,0.1 -0.9,-2.3 -1.9,-3.6 -2.4,-3 -7.5,-0.4 -8,2.2 -0.7,3 8.1,3.3 8.9,8 1.3,6.9 -5.8,13.5 -12.4,13.4 -5,-0.1 -12,-3 -6.1,-7.9 1.2,4.8 9.6,4.9 10.4,0.4 0.5,-3 -7.6,-4.4 -8.7,-8.1 -3.5,-11.6 13.4,-16.9 20.8,-9.8 z"
   id="path37" />
		<path
   d="m 604,583 -2.5,6 c -1.9,-4.9 -6,-5.3 -9.4,-1.4 -1.5,5 10.2,2.9 8.7,12.6 -1.4,9.4 -14.6,11.8 -21.4,6.8 l 1.6,-5 c 3.3,-0.1 2.3,3.8 6.6,4 1.8,0.1 5,-2.1 5.3,-3.7 0.7,-3.9 -11.1,-3.2 -8.7,-13.6 1.9,-8.1 13.6,-8.8 19.8,-5.7 z"
   id="path38" />
		<path
   d="m 655.3,587.3 c -2.8,2.7 -7.7,14.2 -3.7,16.7 4.4,2.8 7.2,-1.5 11.3,-0.6 -4.5,9.8 -21.2,7 -22,-4.1 -1,-14 18.8,-25.4 27.9,-13 l -5.4,6.6 c 2.3,-6.7 -2.7,-10.8 -8.1,-5.6 z"
   id="path39" />
		<path
   d="m 827,593 c -2,-0.5 -0.5,-3.9 -1.5,-6 -3.1,-6.3 -10.7,2.8 -11.8,7.2 -2.9,10.9 1.9,13.1 11.3,8.8 l -3,5.5 c -12.8,2.7 -21,-1.5 -17.6,-15.6 2.2,-8.9 16.6,-15.3 24.5,-9.4 4.7,3.5 -1.1,5.6 -1.9,9.5 z"
   id="path40" />
		<polygon
   points="787,609 794.1,582.1 804,582 797,609 "
   id="polygon40" />
		<polygon
   points="465,609 472,582 482,582 475.5,608 "
   id="polygon41" />
		<polygon
   points="364,609 371.1,582.1 381,582 373.9,608.9 "
   id="polygon42" />
		<path
   d="m 483.8,570.2 c 5.8,5.9 -7.4,13.6 -8.8,5.2 -1,-6.1 5.6,-8.3 8.8,-5.2 z"
   id="path42" />
		<path
   d="m 804.8,577.8 c -6.3,6.3 -14.1,-6.6 -4,-8.6 5.4,-1.1 6.8,5.8 4,8.6 z"
   id="path43" />
		<path
   d="m 377.7,569.2 c 7.4,-1.4 7.6,11.2 -1.2,9.9 -4.8,-0.8 -4.3,-8.9 1.2,-9.9 z"
   id="path44" />
		<path
   d="m 435,586 c 4.5,11.8 -5.8,14 -15,15 -1.4,1.4 0.1,1.8 1.5,2 4.9,0.6 11.8,-2 12.6,5.5 1.8,16.3 -31.7,18 -27.7,4.5 1,-3.2 4.5,-3.8 5.1,-4.9 0.7,-1.2 -2.3,-8.6 4.5,-8.1 v -2 c -4.5,-0.6 -3.4,-7.8 -1.4,-11 6.4,-10.2 18.9,-2.5 28,-6 l -1.5,4.5 z m -9.1,10.9 c 7.3,-16.8 -7.2,-14.6 -4,-0.3 z m -11.7,12.3 -2,5.2 c 10.6,13.3 23,-8.4 2,-5.2 z"
   id="path45" />
	</g>
</g>
</svg>
