<svg xmlns="http://www.w3.org/2000/svg" xmlns:xlink="http://www.w3.org/1999/xlink" version="1.1" id="Layer_1" x="0px" y="0px" width="600px" height="266px" viewBox="0 0 600 266" style="enable-;background-color:transparent;" xml:space="preserve">
<style type="text/css">
	.st0{fill:#FFFFFF;}
</style>
<g>
	<g>
		
		<path d="M503,0c1.3,2.2,1.3,4.8,0.8,7.3c-2.5,11.3-12.8,27-16.1,38.9c-2.3,8.3,4.4,7,7.8,1.8c5.7-8.7,6.2-22.9,19.5-26.5    c16-4.3,18.9,13.1,7.6,17.6c-7.5,3-15.8-3.6-13.6,9.4c1.1,6.1,10.1,4.9,14.3,2.4c9.1-5.4,10.6-25.8,17.3-29.7    c2.4-1.4,4.1-1.4,6.3,0.4c5,4-0.1,6.5,0,9.9c0.1,4.6,5.5,12,4,17.6c5.1-1.5,5.5-12.5,10.5-12.1c5.5,0.5,0,10-1.7,12.4    c-5.1,7.5-13.9,12.4-23.1,10.4c-2.5-0.5-7.2-4.6-8.2-4.5c-0.7,0.1-1.6,1.7-2.6,2.2c-6.2,2.9-15.4,4.3-21.6,0.8    c-1.7-1-4.4-4.4-5.7-4.1c-1.5,0.3-4.6,5.2-10.2,5.9c-6.5,0.7-10.4-3.9-11.7-3.8c-1.6,0.1-5.5,3.1-8.4,3.6    c-8.1,1.4-14.6,0.3-20.3-5.8c-1.4,5.2-6,10.3-11,12.5c-2.7,1.2-7,1.4-9,3c-4.1,3.5-3,13.2-12.7,15.3c-20.7,4.3-21.6-20-4.8-21.8    c3.5-0.4,10.4,1.8,10.5-3c-3.2,0.3-7.1-0.2-9.7-2.3c-0.7-0.5-1-2.5-1.8-2.7c-0.9-0.2-7.2,6.8-15.5,4.5    c-14.2-3.9-1.7-18.7-0.2-26.3c0.9-4.6-1.5-5-4.8-2.7c-6.3,4.4-9.6,28.8-16.6,29.5c-4.7,0.5-4.9-4.5-4-8.1    c1.2-4.6,8-21.6,10.3-25.7c1.6-2.8,5.3-6.7,8.5-4.3c0.8,0.6,0.7,1.9,0.8,1.9c0.6,0.4,5.5-3.1,9.4-3c17.4,0.5-1.1,24,0.6,29.4    c0.8,2.5,3.6,1.9,5.5,0.7c4.3-2.8,6.7-13.3,9.6-18.4c4.3-7.2,10.1-13,19.1-11.5c1.2,0.2,2.3,1.5,3.4,1.6c1.6,0.2,3-1.6,4.8-1.7    c4.1-0.2,4.7,3.7,4.1,7c-1.4,7.1-9.1,21.2-12.1,29c-0.4,1.1-2.7,4.6,0,4c13.7-3.2,14.3-35.5,31.4-39.6    c17.8-4.2,18.1,14.9,6.1,18.1c-2.8,0.7-11.6,0.1-12,0.5c-0.3,0.3-1.1,6.6-0.6,8c2.3,7.2,11.9,5.5,16.6,1.5    c2.6-2.2,3.7-4.9,5.1-7.9C485.9,28.2,489.5,13,497,0H503z M469.8,32.8c1.9-1.8,0.2-4.8-2.1-4.6c-1.7,0.1-6.9,4.7-5.7,5.9    C464.2,34,468.1,34.3,469.8,32.8z M513,34c4.1,0.5,6.6-0.1,9-3.5C519.7,24.5,511.6,32.7,513,34z M429.7,29.2    c-7.2,1.4-14.2,20.5-9.2,21.8c4.2,1.1,7.7-8,8.9-11C430.7,37.1,435.6,28,429.7,29.2z M539,36l-4.9,13.4c3.1,3.7,8.7,4.1,8-1.9    L539,36z M417,69c-3.5-0.9-11.9,1.4-9.5,6C410.3,80.5,417.8,73.8,417,69z" data-index="1" style="opacity: 1;"></path>
		<path d="M195,0c6.1,4.1-1.4,7.6-2.5,10c-2.5,5.4,5.1,10.5,7.5,8.6c1.1-0.8,4.8-9.7,7.6-12.5c8.8-8.7,25.6-4.7,22.2,10.2    c-1.2,5.2-8.8,10.9-13.8,12.2c-3.3,0.9-6.9-0.2-9.4,0.6c-2.2,0.7-6.8,15.1-7.7,18.2c5.3,3,10.6,8.9,17.4,7.4    c11.1-2.4,10.5-30.5,27.4-33.6c17.7-3.3,17,15.1,12.3,26.8c11.6,0.4,11.7-26.5,20.7-27.8c2.1-0.3,5.5,1.5,6.1,3.5    c1.1,3.6-1.7,4.8-1.8,6.8c-0.2,4.7,5.4,12.9,3.9,18.5c6.3-2.8,5-13.9,13-12c-0.6,13.2-13.4,25.7-27.3,22.8    c-3.9-0.8-7.1-5.6-9.2-5.8c-0.7-0.1-10,1-10.8,1.2c-2.2,0.6-4.7,3.9-7.4,4.6c-6.6,1.5-11.8,0-16.3-4.8c-3.6,10.6-13,12.6-22.7,8.2    c-2.5-1.1-10.1-8-10.8-8c-0.6,0-2.5,2.6-3.6,3.3c-9.4,6.2-26.7,1.7-22.5-11.5c2.1-6.7,11.1-7.7,17.1-7c5.6,0.7,4.4,4.4,7.6-2.3    c0.7-1.5,4.2-10.2,3.8-10.7c-14.4-2.9-18.1-19-5-27H195z M210,21c3.5,0.3,13.4-4.9,11.5-9C218.6,5.5,208.9,16.8,210,21z     M248.7,39.7c1.8-2.7,2-13-3.1-11.6c-5.1,1.4-13,21.1-7.7,24.4c1.4,0.9,5.5-1,6-1.7c0.4-0.6-2.7-4.5,1.5-8.9    C246.4,40.9,248.4,40.3,248.7,39.7z M273,36c0.8,2.9-5.9,11.8-5.9,12.5c0,1.4,9,7.7,9-1L273,36z M176,48c-0.5,4.3,3.2,5.4,6.8,4.3    C191,49.9,180.5,45.2,176,48z" data-index="2"></path>
		<path d="M338,266h-17c-3.4-3.2-0.5-6.3,3.4-6c2.1,0.2,3.7,2.3,6,2c1.3-0.2,6.3-2.7,4-4c-4.2,2-14.8,0.2-16.3-4.7    c-3.2-10.8,15.9-15,22.8-6.8C346.3,252.7,344.7,261.6,338,266z M329.7,247.2c-5.6,0.8-4.4,6.8,0.8,6.8    C336.9,253.9,335.9,246.3,329.7,247.2z" data-index="3" style="opacity: 1;"></path>
		<path d="M373,266c-5.1-2-1.7-6.3,1.7-6.9c1.7-0.3,7.4,6.3,11.3,0.3c-1.1-6.8-12.1-0.4-14.9-3.6c-0.9-1.1,0.1-11.2,1.9-12.4    c1-0.7,14.6-0.8,16.5-0.5c3.3,0.6,2.5,3.2,2.5,6l-13,0.5c10.7,0.6,20.5,5.1,12,16.5H373z" data-index="4" style="visibility: visible;"></path>
		<path d="M231,266l-3-3.5c1.3-1.7,4.3-3.5,6.4-3.3c1.7,0.2,7.5,5.8,9.6,1.3c1.1-2.3-6.4-2.7-7.8-3.2c-14.2-4.9-7-15.3,3.3-15.3    c2.3,0,11,2.2,11.5,4.6c0.2,1.1-2.7,4.1-3.6,4.3c-1.1,0.2-3.2-1.5-4.9-1.8c-3.1-0.6-8.7,0.4-4.2,2.2c2.5,1,5.5,0.7,8.3,1.7    c6.8,2.4,8.4,7.6,3.4,13.1H231z" data-index="5" style="visibility: visible;"></path>
		<path d="M206,266v-23h18.5c1.5,0,1.8,4.6,1.5,6c-1,0.9-10.2-1.6-12,1.5c-0.4,3.2,6.2,0.7,7,1.5c0.7,9-0.6,4.7-5.3,6.2    c-1.3,0.4-1.9,1.5-1.7,2.8c4.8,0.7,13.2-2.7,12,5H206z" data-index="6"></path>
		<path d="M345,266c-0.4-2.4,0.6-3,2.1-4.4c2.1-2,12.5-8.3,12.9-10.1c1.2-5.3-9.7-0.6-10.3-0.7c-5.4-1-4.4-5.3,0.3-7.3    c4.8-2,9.9-2.1,14.3,0.6c8.9,5.4,0.4,11.8-4.3,16.4c4.8,1.2,9-1.5,7,5.5H345z" data-index="7"></path>
		<path d="M262,266c-0.6-3.8,1.7-14.8-2-16.5c-2.1-1-6.1,0.3-6.9-2.1c-1.1-3.2,0.6-4.1,3.4-4.5c3.4-0.4,16-0.5,19.1,0    c3.3,0.6,2.5,3.2,2.5,6c-12.4-2.5-6.9,9-8,17H262z" data-index="8"></path>
		<path d="M315,266h-9l0.1-14.4c-0.2-1.2-4.4-0.3-4-3c0.9-5.9,11.5-7.8,12.8-4C316.4,249.4,314,260.4,315,266z" data-index="9"></path>
		<path d="M286,266h-9C275,257.2,287.1,257.9,286,266z" data-index="10" style="visibility: visible;"></path>
		<path d="M54.5,11c-4.3,0.6-11.9,4.5-9,10c1.1,2,7.4,2.9,3.6,7.6c-5,6.1-17.9-4.6-11.3-16.3c9.4-16.7,35.5-7.6,49.7-7.2    c5.3,0.2,15.1-4.6,13.4,4.2C100.5,11,93.8,20.8,95,22c13-3.2,15.8,1.8,12,13.5c-1,3-10.4,20.8,0,16c4.5-2.1,8.5-20.7,17.1-26.9    c10.8-7.9,26.1-2,18.4,10.4c-5,8-17.2,3.9-18.4,5.1c-0.3,0.3-1.1,6.3-0.9,7.2c1.7,9.3,14.5,5.8,19.3-0.4c2.5-3.2,3.6-10.4,8.1-10    c4.4,0.4,0.5,8.4-0.9,11.1c-5.3,9.9-15.8,14-26.8,11.7c-3.3-0.7-8-6-9.1-5.7c-0.8,0.2-3.4,3.4-5.6,4.4c-4.4,2-10.1,2.4-14.1-0.9    C86.2,51,97.1,39,98,31.4c0.2-1.9-1.8-2.3-3.1-2c-7.7,1.9-11.2,28.6-17.6,30.4c-3.8,1.1-7.1-2-5.9-5.9L88,14.5    c-7.1-3-10.9-0.8-14.5,5.5C66.7,31.5,63,48.2,56.9,60.4c-5.6,6-10.4,3.4-8.2-5.2c2.6-9.8,9.3-20.7,12.5-30.5L70,11    C65.1,11.5,59.2,10.3,54.5,11z M135.8,32.8c1.9-1.8,0.2-4.8-2.1-4.6c-1.7,0.1-6.9,4.7-5.7,5.9C130.2,34,134.1,34.3,135.8,32.8z" data-index="11"></path>
		<path d="M10.7,87.2c11,0.7,25.2-1.7,35.7-0.1c6.5,1,12.4,9.1,12.6,15.5c0.1,3.8-3.5,9.4-2.9,11.8c0.6,2.4,6,4.4,6.8,9.3    c1.6,9.8-1.3,16.8-10.9,19.9c-7.1,2.3-30.5,2.4-38.5,1.5c-4.3-0.4-6.1-2.2-6.5-6.5c-1.5-14.5,1.2-31.3,0-46.1    C6.9,90,8.7,88.2,10.7,87.2z M28.7,101.2c-3.3,0.7-5.2,3.5-2.8,6.4c1.9,2.3,14.8,2.7,15.9-1.3C43.6,100.1,32.8,100.3,28.7,101.2z     M25.2,124.2c-7.7,7.3,19.8,9.7,19.8,2.3C45.1,121.6,28,121.6,25.2,124.2z" data-index="12"></path>
		<path d="M416.2,191.8c0.3,0.4,2.4,0.9,3.4,2.1c6.1,7,4.9,19.9-3.7,24.5c-8,4.3-30.1,4.4-39.4,3.6c-6.4-0.5-8.9-1.9-9.5-8.5    c-1-10.9-1-32.2,0-43.1c0.2-1.8,0.3-5,2-6c1.6-0.9,32.4-0.9,36.6-0.5c7.3,0.6,13.8,9.3,13.4,16.4    C418.8,183.3,415,190.1,416.2,191.8z M392.8,177.3c-10.8,0.4-11.2,9.5,1.8,8.8C406.6,185.4,403.3,176.8,392.8,177.3z M385.2,205.8    c2.7,2.5,20.8,2,19.7-3.2c-0.9-4.4-16.2-4.8-19.5-1.6C384.3,202.2,384,204.6,385.2,205.8z" data-index="13" style="opacity: 1;"></path>
		<path d="M132.9,143.9c-1,1.4-12.8,1.5-14.9,0.6c-3.9-1.8-8.8-13.8-12.5-17.5c-1.7-1.8-6.3-4.9-7.4-1.3l-1.3,18.2    c-6.5,1.2-16.9,4.4-17.9-4.3c-1.2-10.3-1-34.5,0-45.1c0.4-3.9,1-7,5.5-7.5c7.6-0.8,25.4-0.7,33.1,0c11.9,1.2,15,11.7,13.3,22.3    c-1.2,7.1-9.9,10.3-9.6,13.1C121.6,126.9,135.5,140.1,132.9,143.9z M100.7,100.2c-4.8,1-6.8,7.3-2.7,9.3c4.1,2,21.7,1.6,16.8-6.8    C112.8,99.2,104.4,99.4,100.7,100.2z" data-index="14"></path>
		<path d="M168.5,102c-0.6,0.2-2.7,2.4-2.5,3.4c1.2,5.7,21.5-0.9,22.9,7.1c2.2,12.4-5.3,8.8-13.5,9.5c-2.5,0.2-9.6,0.7-8.5,4.5    c1.5,5,28.3,0.7,33,3c3.2,1.6,4.7,14.8-4.4,15.6c-9.3,0.7-29.1,1-38.1,0c-3.3-0.4-6.5-1.8-6.5-5.5c1.2-14.8-1.4-31.6,0-46.1    c0.5-4.5,2.2-5.8,6.6-6.4c7-0.9,31-1,37.7,0.1c10.4,1.8,5.9,14.8,3.2,14.8H168.5z" data-index="15"></path>
		<path d="M502.2,101.2c-1.9,1.9-1.5,4.7,0.8,6.2c6.9,4.4,23.7-0.2,28,12c10.5,30.1-42.3,35.7-48.6,12.6c-1.5-5.5,3.4-6.9,8.2-6.9    c6.6-0.1,7.7,6,12.9,6.9c3.5,0.6,12.6-0.3,11.4-5.3c-0.8-3.4-14.5-4.3-18.5-5.6c-11-3.6-17.1-12.5-11.8-23.9    c5.5-12,27.8-12.9,38.1-7.3c3.6,1.9,11.8,9.5,7.8,13.2c-8.6,8.3-12.8-1.6-18.2-2.8C510,99.7,503.9,99.6,502.2,101.2z" data-index="16"></path>
		<path d="M305,104c8-0.8,11.4-13.9,18.3-16.2c3.9-1.3,16.7-2.1,14.2,4.2c-2,5.1-13.8,15.1-13.5,20.5c0.4,6.4,15.4,20,18.2,26.9    c2.8,6.6-7.4,6.3-11.7,5.7c-8.4-1.4-14.9-20.9-21.2-21.7c-8-1.1-1.3,16.9-6.8,20.8c-1.9,1.3-6.7,1.2-9.1,1    c-7.8-0.9-4.4-13.3-4.4-18.5c0-9.2-1.5-19.5-1.1-28.1c0.2-4.9,0.2-10.5,5.6-11.4C307.3,84.9,305,93.6,305,104z" data-index="17" style="opacity: 1;"></path>
		<path d="M225.7,172.3c5.6,6,6.6,10.1-1.8,14.1c-9.6,4.5-8.7-4.1-16.2-6.6c-22.3-7.6-23.4,33.5,0.3,24.7c4.4-1.6,8.2-7.2,10.6-7.5    c1.6-0.2,10.8,3.5,11.3,4.2c4.1,5.7-12.6,18.6-17.9,20.4c-26.4,8.6-44.7-15.6-36.5-40.5C182.4,160.2,211.5,157.2,225.7,172.3z" data-index="18"></path>
		<path d="M409,144L428.5,89c2.4-2.8,13.3-2.4,17-2c4.7,0.5,5.2,2.2,7,6c4.4,9.8,9,23.1,12.5,33.5c1.1,3.1,6,15.6,4.6,17.6    c-1,1.4-11.9,1.3-13.9,0.8c-3.6-1.1-3.8-7.9-6.1-9.9c-3.1-2.7-16.4-2.8-19.5-0.4c-2.5,1.9-3.3,9.2-6.7,10.3    C421.3,145.4,409.9,145.2,409,144z M445,120c0.9-3.9-2.1-16.8-7.8-12.8c-1.2,0.8-4,12.1-3.1,12.8C437.9,120.7,441,120.8,445,120z" data-index="19"></path>
		<path d="M238.7,87.2c4.1-0.9,16.8-1.1,19.2,2.4l18.7,51.4c1.7,5.4-12.2,4.7-14.6,3.5c-2.6-1.3-3.6-7.6-5.5-9.5    c-2.9-2.9-16.4-2.8-19.4-0.5c-2.5,1.9-3.3,9.2-6.7,10.3c-2,0.6-12.9,0.6-13.9-0.8c-1-1.4,1-6.7,1.5-8.6    c3.9-12.7,10.1-30.4,15.6-42.4C234.7,90.3,235.4,87.9,238.7,87.2z M248.9,107.2c-5.9-4.1-8.3,9.1-7.8,12.8    c2.2,0.3,9.5,1.5,10.9-0.1C252.9,118.8,249.9,107.9,248.9,107.2z" data-index="20"></path>
		<path d="M349.8,165.2c0.9,0.9,1.1,3,1.2,4.2c1,11.4,1.1,34-5.6,43.5c-9.2,13-33.4,12.7-42.3-0.6c-6.2-9.3-6.2-31.7-5.2-42.9    c0.3-3.6,0.9-4.9,4.6-5.4c16.7-2.1,10.6,8.1,11.4,20.4c0.3,4.5,1.6,17,6,19c4.3,1.9,10,0.6,12.4-3.6c1.5-2.7,2.4-10.9,2.6-14.4    c0.3-4.4-1-16.5,0.5-19.5C337,163,347.8,163.3,349.8,165.2z" data-index="21" style="opacity: 1;"></path>
		<path d="M372,140.5c-1.3,6.3-15.6,6.8-16.8-0.2c0.5-14.5-1.4-30.5-0.3-44.8c0.5-6,1.2-7.8,7.5-8.5c8.6-0.9,26.3-0.8,35,0    c5.7,0.5,8.4,1.3,8.6,7.5c0.1,3.4-0.1,6.6-3.8,7.3c-5,0.9-29.7-0.9-31.2,1.3c-0.6,0.9-0.2,3.8,0.9,4.5c5.5,3.6,27.6-6.2,19.9,14.3    L372,123C371.3,128.1,373,135.8,372,140.5z" data-index="22" style="opacity: 1;"></path>
		<path d="M354,41l-9.8,0.1c-3,6.9-9.6,18.5-17.7,19.8c-20.4,3.2-23.3-21.9-4.7-27.7c4.6-1.4,15.3-0.6,17.2-1.8    c1.9-1.2,8.8-15.8,12.5-19.5c1.5-1.5,5.6-4.6,7.5-5.5c4-2,18.9-5.2,19,1C374,21.7,365.1,35.9,361.5,50c-1.7,6.8-0.1,5.3,0.5,10.6    c0.6,5.7-6.3,7-9.4,3.4C347,57.6,352.6,47.9,354,41z M366,13c-8.7,1.7-12.2,12-16,19c2.5-0.3,6.7,0.9,8.5-1    C360.8,28.7,363.5,16.5,366,13z M334,41c-5.2-0.9-18.3,1.4-14.5,9C323.3,57.5,333,45.3,334,41z" data-index="23" style="opacity: 1;"></path>
		<path d="M287.5,205c3.4,0.6,3.5,4.7,3.6,7.5c0,7.3-1.1,8.9-8.5,9.6c-8.7,0.7-24.3,0.7-33.1,0c-6-0.5-8-1.2-8.5-7.5    c-1.1-15,0.8-31.6,0.3-46.8c0.3-5.9,15.8-5,15.8-0.2v36c0,0.1,1.4,1.5,1.5,1.5C266.6,205,280.2,203.8,287.5,205z" data-index="24" style="visibility: visible;"></path>
		<path d="M546.7,87.2c12.9,0.7,28.3-1.7,40.8-0.2c1.8,0.2,4.7,0.7,5.3,2.7c0.5,1.4,0.5,8.2,0.2,9.8c-1.2,6.8-15.1,0.4-16.8,6.2    c-1.3,11.1,1,24-0.1,34.9c-0.8,6.8-13.1,5.3-14.6,2.5l-0.7-37.3c-1.6-5.5-13.7-0.3-16.3-4.7C543.3,99.1,543,87.9,546.7,87.2z" data-index="25"></path>
		<path class="st0" d="M429.7,29.2c5.9-1.1,1,7.9-0.2,10.8c-1.3,3-4.7,12.1-8.9,11C415.5,49.7,422.5,30.5,429.7,29.2z" data-index="26" style="visibility: visible;"></path>
		<path class="st0" d="M539,36l3.1,11.5c0.7,6-4.9,5.6-8,1.9L539,36z" data-index="27" style="visibility: visible;"></path>
		<path class="st0" d="M417,69c0.8,4.8-6.7,11.5-9.5,6C405.1,70.5,413.5,68.1,417,69z" data-index="28"></path>
		<path class="st0" d="M469.8,32.8c-1.7,1.5-5.5,1.2-7.8,1.2c-1.3-1.2,4-5.7,5.7-5.9C470,28,471.7,31,469.8,32.8z" data-index="29"></path>
		<path class="st0" d="M513,34c-1.4-1.3,6.7-9.5,9-3.5C519.6,33.9,517.1,34.5,513,34z" data-index="30"></path>
		<path class="st0" d="M248.7,39.7c-0.4,0.6-2.3,1.2-3.3,2.2c-4.2,4.5-1.1,8.3-1.5,8.9c-0.5,0.7-4.6,2.6-6,1.7    c-5.3-3.4,2.6-23.1,7.7-24.4C250.7,26.7,250.5,37,248.7,39.7z" data-index="31" style="visibility: visible;"></path>
		<path class="st0" d="M273,36l3.1,11.5c0,8.7-9,2.4-9,1C267.1,47.8,273.8,38.9,273,36z" data-index="32"></path>
		<path class="st0" d="M210,21c-1.1-4.2,8.6-15.5,11.5-9C223.4,16.1,213.6,21.3,210,21z" data-index="33" style="visibility: visible;"></path>
		<path class="st0" d="M176,48c4.5-2.8,15,1.8,6.8,4.3C179.2,53.4,175.5,52.3,176,48z" data-index="34"></path>
		<path class="st0" d="M329.7,247.2c6.2-0.9,7.2,6.8,0.8,6.8C325.3,253.9,324.2,248,329.7,247.2z" data-index="35"></path>
		<path class="st0" d="M135.8,32.8c-1.7,1.5-5.5,1.2-7.8,1.2c-1.3-1.2,4-5.7,5.7-5.9C136,28,137.7,31,135.8,32.8z" data-index="36"></path>
		<path class="st0" d="M25.2,124.2c2.8-2.6,19.8-2.7,19.8,2.3C45,134,17.6,131.5,25.2,124.2z" data-index="37"></path>
		<path class="st0" d="M28.7,101.2c4.1-0.9,14.9-1.1,13.1,5.1c-1.1,4-14.1,3.6-15.9,1.3C23.5,104.7,25.4,101.9,28.7,101.2z" data-index="38"></path>
		<path class="st0" d="M385.2,205.8c-1.3-1.2-0.9-3.6,0.3-4.7c3.3-3.2,18.5-2.9,19.5,1.6C406.1,207.8,388,208.3,385.2,205.8z" data-index="39"></path>
		<path class="st0" d="M392.8,177.3c10.6-0.4,13.8,8.1,1.8,8.8C381.6,186.8,382,177.7,392.8,177.3z" data-index="40"></path>
		<path class="st0" d="M100.7,100.2c3.7-0.8,12.1-1,14.1,2.5c4.8,8.4-12.7,8.8-16.8,6.8C93.9,107.5,95.9,101.3,100.7,100.2z" data-index="41"></path>
		<path class="st0" d="M445,120c-3.9,0.9-7,0.8-10.9,0c-0.9-0.7,2-12,3.1-12.8C442.8,103.2,445.9,116.1,445,120z" data-index="42" style="visibility: visible;"></path>
		<path class="st0" d="M248.9,107.2c1.1,0.8,4,11.6,3.1,12.8c-1.3,1.6-8.7,0.4-10.9,0.1C240.6,116.3,243,103.1,248.9,107.2z" data-index="43" style="visibility: visible;"></path>
		<path class="st0" d="M366,13c-2.5,3.5-5.2,15.7-7.5,18c-1.8,1.9-6,0.7-8.5,1C353.8,25.1,357.3,14.7,366,13z" data-index="44" style="visibility: visible;"></path>
		<path class="st0" d="M334,41c-1,4.3-10.7,16.5-14.5,9C315.7,42.4,328.8,40.1,334,41z" data-index="45"></path>
	</g>
</g>
</svg>