<?xml version="1.0" encoding="utf-8"?>
<!-- Generator: Adobe Illustrator 27.7.0, SVG Export Plug-In . SVG Version: 6.00 Build 0)  -->
<svg version="1.1" id="Layer_1" xmlns="http://www.w3.org/2000/svg" xmlns:xlink="http://www.w3.org/1999/xlink" x="0px" y="0px"
	 width="412.4px" height="145.7px" viewBox="0 0 412.4 145.7" style="enable-background:new 0 0 412.4 145.7;" xml:space="preserve"
	>
<style type="text/css">
	.st0{fill:#231F20;}
	.st1{fill:#C08329;}
</style>
<path class="st0" d="M152.7,18c2.2-0.7,3.2-1.6,3.2-2.9c0-0.6-0.3-1.3-1-2.1c-1.7-1.7-3.8-2.6-6.2-2.6c-3.1,0-5.3,1.7-6.8,5.3
	l-1.5,12.5c-0.6,5.4-1.7,9.5-3.4,12.1c-2.3,3.6-5.9,5.4-10.8,5.4c-6.5,0-10.4-2.6-11.7-7.8c-0.2-0.7-0.3-1.4-0.3-2
	c0-1.8,0.7-3.4,2.1-4.6c1.8-1.7,4.1-2.5,6.9-2.3c5.1,0.3,8.2,2.3,9.3,6.1c-0.1-0.1-0.3-0.4-0.7-0.7c-2.3-2.7-5.2-4-8.5-3.9
	c-1.9,0-3.5,0.6-4.9,1.6c-1.5,1.1-2.3,2.5-2.3,4.4c0,0.5,0,1,0.1,1.4c0.9,4.5,3.9,6.8,9.2,6.9c3.2,0,5.5-0.5,6.9-1.7
	c1.7-1.5,3.1-4.3,4.2-8.8c0.3-1.6,0.7-4.6,0.9-8.9c0.2-3.8,0.7-6.7,1.3-8.7c2.2-4.5,5.5-6.7,9.8-6.7c1.5,0,3,0.3,4.5,0.8
	c2.8,1.1,4.1,2.6,4.1,4.6C157.2,17,155.7,18,152.7,18z"/>
<path class="st0" d="M184.4,17.4c-2,1.6-4.4,2.4-7.1,2.3c-5.1-0.3-7.8-2.3-8.3-6.1c0,0.1,0.2,0.5,0.6,0.9c2.1,2.6,4.6,3.9,7.7,3.7
	c2.3,0,4.2-0.7,5.8-2c1.8-1.4,2.6-3.1,2.5-5.3c0-2.3-0.8-4.1-2.3-5.4c-1.5-1.1-3.3-1.6-5.6-1.5C170.5,4.3,164,8,158.3,15.1
	c-2.9,3.6-5.9,8.3-9.2,14c0.8-0.4,1.6-0.6,2.5-0.6c2.3,0,3.4,1.4,3.4,4.1c0,1.3-0.3,2.6-0.8,4c-1.1,2.9-1.7,5-1.7,6.3
	c0,0.9,0.3,1.4,0.9,1.4c0.8,0,1.9-0.8,3.4-2.3c0.6-0.6,1.7-1.9,3.3-4.3c0.2-0.3,0.4-0.4,0.6-0.1c0.2,0.2,0.3,0.5,0.1,0.8
	c-2.9,4.5-5.4,6.8-7.6,6.8c-1.3,0-2.2-0.7-2.7-2c-0.3-0.7-0.4-1.3-0.4-1.9c0-1,0.4-2.6,1.2-4.7c0.8-2.1,1.3-3.7,1.3-4.9
	c0-1.5-0.5-2.2-1.4-2.2c-1.3,0-2.7,1.1-4.3,3.4l-0.6,1.1c-1.1,1.5-2.1,4.2-3,8.3c-0.1,1.6,0.4,2.4,1.4,2.5c-2.4,0-3.6-1.2-3.6-3.5
	c0-2.2,0.8-4.9,2.4-8.1C153.6,13.1,164.8,3,177.2,3c6.6,0,10,2.6,10.3,7.8C187.7,13.5,186.7,15.7,184.4,17.4z"/>
<path class="st0" d="M171.8,34.2c-0.3,2.7-1.7,5.4-4.4,8.2c-1.8,1.9-3.7,2.9-5.6,2.9c-2.3,0-3.4-1.4-3.4-4.2c0-3.3,1.5-6.5,4.5-9.4
	c1.9-1.9,3.8-2.9,5.5-2.9c2.3,0,3.4,1.4,3.4,4.1C171.8,33.4,171.8,33.7,171.8,34.2z M168,30c-1.1,0-2.4,0.9-3.8,2.7
	c-2.3,3.2-3.5,6.2-3.5,9c0,1.5,0.5,2.3,1.6,2.3c2.1,0,4.1-2.3,5.9-6.8c0.3-0.8,1.3-3.1,1-2.4C170.2,32.5,170,30,168,30z"/>
<path class="st0" d="M181.5,42.4c-1.8,1.9-3.7,2.9-5.5,2.9c-1.6,0-2.7-0.7-3.2-2.1c-9.5,18-16.2,22.1-25.9,22.2
	c-6.5,0.1-9.8-3-10.2-8.2c-0.2-2.7,0.8-4.9,3.1-6.7c2-1.6,4.4-2.4,7.2-2.2c5.1,0.3,10,1.1,10.3,4.7c0-0.1-1.4-0.1-1.7-0.6
	c-1.6-2.6-4.7-2.1-8.2-2c-2.2,0-4.5,0-6.2,1.3c-1.7,1.4-2.6,3.1-2.5,5.4c0.1,4.5,3.3,6.9,8,6.9c7.2-0.1,14.1-3.4,19.8-12.6
	c3.5-5.7,3.9-7.4,8-17.4c0.9-2.2,0.7-3.8,0.1-4.6c-0.3-0.4-0.7-0.6-1.1-0.7c2.2,0,3.4,1,3.7,3c1.9-1.9,3.8-2.9,5.5-2.9
	c2.3,0,3.5,1.4,3.5,4.2C186,36.2,184.5,39.3,181.5,42.4z M182.1,30c-1.1,0-2.4,0.9-3.8,2.7c-2.3,3.2-3.5,6.2-3.5,9
	c0,1.5,0.5,2.3,1.5,2.3c2.1,0,4.1-2.3,5.9-6.8c0.8-2.1,1.3-3.8,1.3-5.2C183.5,30.7,183,30,182.1,30z"/>
<g>
	<path class="st0" d="M111.9,54.8l-8.6,17.9c-3.2,6.7-5.9,12.6-7.9,17.6h-1.2c-0.7-1.7-2.8-6.1-6.1-13.2L77.7,55.6V78
		c0,5.2,0.2,8.2,0.6,8.9c0.4,0.7,1.7,1.1,3.9,1.1h1.1v1.8c-2.7-0.1-4.9-0.2-6.5-0.2c-1.2,0-3.6,0.1-7.3,0.2v-1.8h1.9
		c1.3,0,2.1-0.2,2.5-0.5c0.4-0.4,0.7-1,0.8-2c0.3-2.7,0.4-5.6,0.4-8.7V60.3c0-4-0.1-6.6-0.3-7.8c-0.1-0.7-0.4-1.2-0.9-1.5
		c-0.5-0.3-1.5-0.5-2.9-0.5h-1.5v-1.8c3.4,0.1,5.5,0.2,6.3,0.2c1.1,0,2.7-0.1,4.7-0.2c2.3,5.2,5,10.9,8.1,17.2l7.6,15.7l7-14.5
		c2.5-5.1,5.3-11.2,8.4-18.3c2.4,0.1,4.1,0.2,5.1,0.2c1.1,0,3.2-0.1,6.2-0.2v1.8H121c-1.7,0-2.7,0.3-3.1,0.9
		c-0.4,0.6-0.6,2.7-0.6,6.3v21.1c0,4.7,0.2,7.4,0.6,8.1c0.4,0.7,1.5,1,3.3,1h1.7v1.8c-2.7-0.1-5.2-0.2-7.7-0.2
		c-2.7,0-5.5,0.1-8.5,0.2v-1.8h1.9c1.5,0,2.4-0.3,2.8-1c0.3-0.7,0.5-3.5,0.5-8.6V54.8z"/>
	<path class="st0" d="M125.4,69.2c0-6.3,2-11.4,6.1-15.3c4.1-3.9,9.5-5.8,16.3-5.8c6.7,0,11.9,1.8,15.7,5.4
		c3.8,3.6,5.7,8.4,5.7,14.3c0,6.4-2.2,11.8-6.6,16.1c-4.4,4.3-9.9,6.5-16.6,6.5c-4.2,0-7.8-0.8-10.8-2.5c-3-1.7-5.4-4.2-7.2-7.4
		C126.3,77.1,125.4,73.4,125.4,69.2z M131.3,66.8c0,4.4,0.7,8.1,2.2,11.4c1.5,3.2,3.5,5.6,6,7.3c2.5,1.6,5.4,2.4,8.6,2.4
		c3,0,5.6-0.7,7.8-2.1c2.2-1.4,4-3.4,5.3-6.1c1.3-2.7,1.9-6,1.9-9.9c0-4.1-0.7-7.6-2.1-10.5c-1.4-2.9-3.4-5.1-5.8-6.5
		c-2.5-1.5-5.4-2.2-8.8-2.2c-3.1,0-5.7,0.6-8,1.9c-2.2,1.3-4,3.2-5.3,5.7C131.9,60.6,131.3,63.5,131.3,66.8z"/>
	<path class="st0" d="M180.2,55.1v20c0,4.5,0.1,7.7,0.3,9.5c0.1,1.4,0.4,2.2,0.7,2.5c0.3,0.3,1.2,0.5,2.8,0.7l1.9,0.1v1.8
		c-2.1-0.1-4-0.2-5.7-0.2c-1.2,0-3.9,0.1-8.1,0.2v-1.8h2.1c1.3,0,2.1-0.2,2.5-0.5c0.4-0.3,0.6-1,0.7-2.1c0.2-2.1,0.3-5,0.3-8.6V62.3
		c0-2.7,0-5.4-0.1-8c0-1.1-0.2-1.9-0.4-2.3c-0.3-0.4-0.6-0.8-1.1-1.1c-0.5-0.3-1.2-0.5-2.1-0.5h-1.8v-1.8c2.4,0.1,4.3,0.2,5.6,0.2
		c1.4,0,2.9-0.1,4.6-0.2c1.9,2.3,3.7,4.6,5.4,6.8c1.7,2.2,3.4,4.4,5.2,6.7l9.9,12.1c3.6,4.4,6.1,7.4,7.7,9.1V64.7
		c0-7.8-0.1-12-0.4-12.7c-0.3-0.7-1.4-1.2-3.3-1.4l-2.2-0.2v-1.8c3.1,0.1,5.5,0.2,7.2,0.2c1.8,0,4.1-0.1,6.9-0.2v1.8h-2.2
		c-1.8,0-2.8,0.6-3.1,1.8c-0.2,0.8-0.3,5-0.3,12.7v13c0,3.5,0.2,7.7,0.5,12.6c-2.6-0.4-4.1-0.7-4.6-0.9c-0.4-0.2-0.8-0.5-1.2-0.9
		c-2.1-2.4-4.4-5-6.7-7.9L180.2,55.1z"/>
	<path class="st0" d="M241,51.2c-0.2,2.9-0.3,5.9-0.3,9.1v16.5c0,6.1,0.2,9.5,0.5,10.1c0.3,0.6,1.4,0.9,3.3,0.9h2.2v1.8
		c-3.4-0.1-6.3-0.2-8.7-0.2c-2.4,0-5.3,0.1-8.6,0.2v-1.8h2.4c1.3,0,2.1-0.2,2.5-0.5c0.4-0.3,0.6-1,0.7-2c0.2-2.3,0.3-5.2,0.3-8.7
		V60.2c0-3.3-0.1-6.2-0.2-9h-2.9c-4.7,0-7.4,0.1-7.8,0.3c-0.5,0.2-0.8,1.1-1,2.6l-0.4,3.9h-1.8l0.1-3.4c0-1.4-0.1-3.4-0.3-6
		c10.4,0.1,16.5,0.2,18.4,0.2l16-0.2c-0.4,3.3-0.6,6.4-0.6,9.4h-1.8l-0.3-3.8c-0.1-1.3-0.3-2.1-0.5-2.3c-0.2-0.2-0.7-0.4-1.4-0.4
		c-2.1-0.2-4.5-0.2-7.2-0.2H241z"/>
	<path class="st0" d="M278.9,68.9c1.9,2.7,4.2,5.9,7,9.5l5.6,7.2c1,1.2,1.6,1.9,2,2.1c0.3,0.2,0.7,0.3,1,0.3h0.8v1.8
		c-1.6-0.1-3-0.2-4.2-0.2c-1.1,0-2.3,0.1-3.5,0.2l-10.2-13.8c-1.9-2.5-4-5-6.1-7.5l0.3-1c1.1,0.1,1.9,0.1,2.5,0.1
		c3.2,0,5.7-0.8,7.6-2.5c1.8-1.7,2.7-3.9,2.7-6.6c0-2.5-0.8-4.4-2.3-5.8c-1.5-1.4-3.8-2.1-6.7-2.1c-2,0-4.1,0.4-6.1,1.1
		c-0.2,3.1-0.3,6.3-0.3,9.8v14c0,6.8,0.2,10.6,0.5,11.3c0.3,0.7,1.4,1.1,3.2,1.1h2.3v1.8c-3.2-0.1-5.9-0.2-8-0.2
		c-1.7,0-4.7,0.1-9,0.2v-1.8h2.2c1.7,0,2.6-0.4,2.9-1.1c0.3-0.7,0.5-4.5,0.5-11.4V61.5c0-6-0.2-9.3-0.5-10c-0.4-0.7-1.5-1.1-3.5-1.1
		h-1.6v-1.8c3.6,0.1,6.3,0.2,8.2,0.2c1.3,0,3.1,0,5.5-0.1c2.8-0.1,4.8-0.1,6-0.1c3.3,0,5.9,0.4,7.6,1.1c1.7,0.7,3,1.7,3.9,3.1
		s1.3,2.9,1.3,4.8c0,2.7-1,5.1-2.9,7.2C285.5,66.7,282.7,68.1,278.9,68.9z"/>
	<path class="st0" d="M297,69.2c0-6.3,2-11.4,6.1-15.3c4.1-3.9,9.5-5.8,16.3-5.8c6.7,0,11.9,1.8,15.7,5.4c3.8,3.6,5.7,8.4,5.7,14.3
		c0,6.4-2.2,11.8-6.6,16.1c-4.4,4.3-9.9,6.5-16.6,6.5c-4.2,0-7.8-0.8-10.8-2.5c-3-1.7-5.4-4.2-7.2-7.4C297.9,77.1,297,73.4,297,69.2
		z M302.9,66.8c0,4.4,0.7,8.1,2.2,11.4c1.5,3.2,3.5,5.6,6,7.3c2.5,1.6,5.4,2.4,8.6,2.4c3,0,5.6-0.7,7.8-2.1c2.2-1.4,4-3.4,5.3-6.1
		c1.3-2.7,1.9-6,1.9-9.9c0-4.1-0.7-7.6-2.1-10.5c-1.4-2.9-3.4-5.1-5.8-6.5c-2.5-1.5-5.4-2.2-8.8-2.2c-3.1,0-5.7,0.6-8,1.9
		c-2.2,1.3-4,3.2-5.3,5.7C303.5,60.6,302.9,63.5,302.9,66.8z"/>
	<path class="st0" d="M370,50.5c-0.5,2-0.8,4.7-0.9,8h-2v-2.3c0-1.5-0.2-2.5-0.6-3.1c-0.4-0.5-1.5-1.1-3.2-1.7
		c-1.7-0.6-3.5-0.9-5.4-0.9c-3.1,0-5.5,0.8-7.3,2.3c-1.8,1.6-2.6,3.6-2.6,6c0,1.5,0.4,2.9,1.1,4c0.7,1.1,1.7,1.9,2.9,2.4
		c1.2,0.5,3.8,0.9,7.8,1.3c4,0.4,6.7,0.9,8.1,1.5c1.4,0.6,2.5,1.7,3.4,3.1c0.8,1.4,1.3,3.1,1.3,5c0,3.9-1.6,7.2-4.9,10
		c-3.2,2.8-7.6,4.2-13,4.2c-1.9,0-3.7-0.2-5.6-0.6c-1.9-0.4-3.8-0.9-5.7-1.7c0.3-2.3,0.5-5.3,0.5-8.9h2v1.4c0,1.9,0.1,3,0.3,3.5
		c0.2,0.4,0.6,0.9,1.4,1.4c1.1,0.8,2.3,1.3,3.8,1.7c1.5,0.4,3,0.6,4.7,0.6c3.6,0,6.5-0.9,8.4-2.6c2-1.7,3-3.9,3-6.5
		c0-1.5-0.3-2.8-1-3.9c-0.7-1.1-1.6-1.9-2.8-2.4c-1.2-0.5-3.5-0.9-6.7-1.2c-4.4-0.3-7.3-0.9-8.9-1.6c-1.6-0.7-2.8-1.8-3.7-3.3
		c-0.9-1.5-1.3-3.3-1.3-5.6c0-3.8,1.4-6.8,4.1-9.2c2.7-2.4,6.5-3.6,11.3-3.6c1.9,0,3.9,0.2,5.8,0.6C366.1,49.1,368,49.7,370,50.5z"
		/>
	<path class="st0" d="M386.4,70.1v7.1l0,4.1c0,2.5,0,4.4,0.1,5.6c2.8,0.2,5.8,0.3,9.1,0.3c2.2,0,4-0.1,5.4-0.3
		c0.9-0.1,1.9-0.4,3-0.8c0.5-1.7,1-3.8,1.5-6.4h1.9c-0.5,4.2-0.8,7.1-0.8,8.5l0.1,1.3c-2.2,0.2-4.4,0.3-6.5,0.3l-4.5-0.1
		c-5-0.1-8.7-0.2-11-0.2c-2.3,0-5.3,0.1-9,0.2v-1.8h0.9c1.7,0,2.7-0.2,3.2-0.5c0.4-0.3,0.7-1.1,0.9-2.3c0.1-1.2,0.2-3.9,0.2-8V61.2
		c0-2.6-0.1-4.7-0.2-6.4c-0.1-1.7-0.3-2.6-0.4-3c-0.1-0.3-0.4-0.6-0.6-0.7c-0.3-0.2-1.1-0.3-2.5-0.5l-2.2-0.2v-1.8h3.1l3.1,0.1
		c1.7,0.1,3,0.1,3.9,0.1l11.1-0.2l5.3,0c1.8,0,3.6,0,5.4,0.2c-0.7,2.3-1.1,5.3-1.2,8.9h-2c0-2.1-0.1-3.9-0.3-5.3
		c-2.3-0.8-5.1-1.3-8.4-1.3c-2.6,0-5.4,0.1-8.3,0.3c0,1.8,0,3.6-0.1,5.4l-0.1,4.4v5.9c1.9,0.1,3.6,0.2,5.1,0.2
		c4.6,0,7.2-0.2,7.8-0.5c0.6-0.3,0.9-1.3,0.9-3v-1.9h2c-0.1,2.9-0.2,5.2-0.2,7c0,1.8,0.1,4,0.2,6.5h-2v-1.7c0-1.9-0.4-3-1.1-3.4
		c-0.7-0.4-3.3-0.6-7.6-0.6C389.8,69.9,388.2,69.9,386.4,70.1z"/>
</g>
<g>
	<path class="st1" d="M225.7,112.9v4.8h-0.8l-0.5-1.3c-0.6,0.9-1.4,1.4-2.6,1.4c-1.3,0-2.3-0.5-2.9-1.5c-0.6-1-1-2.1-1-3.4
		c0-1.4,0.4-2.5,1.1-3.5c0.7-0.9,1.7-1.4,3-1.4c1,0,1.7,0.3,2.4,0.8c0.6,0.6,1,1.2,1.2,2.1l-1.5,0.3c-0.3-1.2-0.9-1.7-2-1.7
		c-0.7,0-1.2,0.3-1.6,0.8c-0.4,0.5-0.6,1.4-0.6,2.5c0,2.4,0.7,3.6,2.2,3.6c0.6,0,1.1-0.2,1.4-0.6c0.4-0.4,0.6-0.9,0.6-1.6h-2v-1.4
		H225.7z"/>
	<path class="st1" d="M229.1,117.7h-1.6v-9.5h1.6V117.7z"/>
	<path class="st1" d="M235.4,115.5l1.4,0.2c-0.2,0.6-0.5,1.2-1.1,1.6c-0.5,0.4-1.2,0.6-2,0.6c-1,0-1.8-0.3-2.3-1
		c-0.6-0.7-0.9-1.5-0.9-2.7c0-1.1,0.3-1.9,0.9-2.6c0.6-0.7,1.4-1,2.4-1c1,0,1.8,0.3,2.3,1c0.5,0.7,0.8,1.6,0.8,2.6l0,0.2h-4.8
		c0,0.5,0,0.9,0.1,1.1c0.1,0.3,0.3,0.5,0.5,0.8c0.3,0.2,0.6,0.3,1,0.3C234.6,116.6,235.2,116.3,235.4,115.5z M235.3,113.4
		c0-0.5-0.2-0.9-0.5-1.2c-0.3-0.3-0.7-0.5-1.1-0.5c-0.4,0-0.8,0.1-1.1,0.4c-0.3,0.3-0.5,0.7-0.5,1.3H235.3z"/>
	<path class="st1" d="M244.2,117.7h-1.6v-4.4c0-0.5-0.1-0.8-0.3-1c-0.2-0.2-0.5-0.4-0.8-0.4c-0.4,0-0.8,0.2-1.1,0.5
		c-0.3,0.4-0.5,0.9-0.5,1.6v3.6h-1.6v-7h1.4v1.6c0.5-1.2,1.2-1.8,2.1-1.8c0.6,0,1.1,0.2,1.6,0.6c0.4,0.4,0.7,1.1,0.7,2V117.7z"/>
	<path class="st1" d="M251.9,117.7h-1.5v-1.4c-0.4,1-1.1,1.6-2.1,1.6c-0.9,0-1.5-0.4-2-1.1c-0.5-0.7-0.7-1.6-0.7-2.7
		c0-1,0.2-1.9,0.7-2.6c0.5-0.7,1.2-1.1,2-1.1c0.9,0,1.5,0.4,1.9,1.2v-3.4h1.6V117.7z M250.3,113.6c0-0.6-0.1-1-0.4-1.3
		c-0.3-0.3-0.6-0.5-1.1-0.5c-0.5,0-0.8,0.2-1.1,0.6c-0.3,0.4-0.4,1-0.4,1.8c0,1.6,0.5,2.3,1.5,2.3c0.4,0,0.7-0.2,1-0.5
		c0.3-0.3,0.4-0.8,0.4-1.3V113.6z"/>
	<path class="st1" d="M259.8,117.7h-1.5c-0.1-0.4-0.2-0.9-0.2-1.4c-0.4,1-1.2,1.6-2.4,1.6c-0.7,0-1.3-0.2-1.7-0.6
		c-0.4-0.4-0.6-0.9-0.6-1.5c0-1.6,1.4-2.4,4.2-2.4c0.1,0,0.3,0,0.5,0v-0.5c0-0.7-0.5-1.1-1.5-1.1c-1,0-1.5,0.4-1.6,1.1l-1.3-0.2
		c0.1-0.6,0.4-1.1,0.9-1.4c0.5-0.4,1.3-0.6,2.3-0.6c0.5,0,1,0,1.3,0.1c0.3,0.1,0.6,0.2,0.9,0.5c0.2,0.2,0.4,0.4,0.5,0.7
		c0.1,0.3,0.1,0.7,0.1,1.3v3.2C259.6,116.8,259.7,117.2,259.8,117.7z M258,114.2c-2,0-3.1,0.5-3.1,1.5c0,0.3,0.1,0.5,0.3,0.7
		c0.2,0.2,0.5,0.3,0.9,0.3c0.6,0,1.1-0.2,1.4-0.6c0.3-0.4,0.5-0.8,0.5-1.3V114.2z"/>
	<path class="st1" d="M263.1,117.7h-1.6v-9.5h1.6V117.7z"/>
	<path class="st1" d="M269.4,115.5l1.4,0.2c-0.2,0.6-0.5,1.2-1.1,1.6c-0.5,0.4-1.2,0.6-2,0.6c-1,0-1.8-0.3-2.3-1
		c-0.6-0.7-0.9-1.5-0.9-2.7c0-1.1,0.3-1.9,0.9-2.6c0.6-0.7,1.4-1,2.4-1c1,0,1.8,0.3,2.3,1c0.5,0.7,0.8,1.6,0.8,2.6l0,0.2h-4.8
		c0,0.5,0,0.9,0.1,1.1c0.1,0.3,0.3,0.5,0.5,0.8c0.3,0.2,0.6,0.3,1,0.3C268.6,116.6,269.1,116.3,269.4,115.5z M269.3,113.4
		c0-0.5-0.2-0.9-0.5-1.2c-0.3-0.3-0.7-0.5-1.1-0.5c-0.4,0-0.8,0.1-1.1,0.4c-0.3,0.3-0.5,0.7-0.5,1.3H269.3z"/>
	<path class="st1" d="M273.5,112.1h-1.1l-0.2-3.8h1.6L273.5,112.1z"/>
	<path class="st1" d="M274.6,116.1l1.5-0.3c0.2,0.6,0.7,0.9,1.5,0.9c1,0,1.5-0.3,1.5-0.9c0-0.2-0.1-0.3-0.2-0.5
		c-0.2-0.1-0.3-0.2-0.5-0.2l-1.3-0.2c-1.4-0.3-2.1-1-2.1-2.1c0-0.6,0.2-1.1,0.7-1.6s1.1-0.6,2-0.6c1.5,0,2.4,0.5,2.7,1.6l-1.4,0.3
		c-0.1-0.5-0.6-0.8-1.3-0.8c-0.8,0-1.3,0.3-1.3,0.8c0,0.4,0.3,0.6,1,0.8l1.5,0.3c1.2,0.2,1.8,0.9,1.8,2c0,0.8-0.3,1.4-0.9,1.7
		c-0.6,0.4-1.3,0.6-2.1,0.6c-0.7,0-1.4-0.1-1.9-0.4C275.1,117.2,274.8,116.7,274.6,116.1z"/>
	<path class="st1" d="M292.6,117.7h-1.7v-4.1h-3.6v4.1h-1.7v-9.5h1.7v3.9h3.6v-3.9h1.7V117.7z"/>
	<path class="st1" d="M296.2,109.9h-1.6v-1.6h1.6V109.9z M296.2,117.7h-1.6v-7h1.6V117.7z"/>
	<path class="st1" d="M297.2,116.1l1.5-0.3c0.2,0.6,0.7,0.9,1.5,0.9c1,0,1.5-0.3,1.5-0.9c0-0.2-0.1-0.3-0.2-0.5
		c-0.2-0.1-0.3-0.2-0.5-0.2l-1.3-0.2c-1.4-0.3-2.1-1-2.1-2.1c0-0.6,0.2-1.1,0.7-1.6c0.4-0.4,1.1-0.6,2-0.6c1.5,0,2.4,0.5,2.7,1.6
		l-1.4,0.3c-0.1-0.5-0.6-0.8-1.3-0.8c-0.8,0-1.3,0.3-1.3,0.8c0,0.4,0.3,0.6,1,0.8l1.5,0.3c1.2,0.2,1.8,0.9,1.8,2
		c0,0.8-0.3,1.4-0.9,1.7c-0.6,0.4-1.3,0.6-2.1,0.6c-0.7,0-1.4-0.1-1.9-0.4C297.7,117.2,297.4,116.7,297.2,116.1z"/>
	<path class="st1" d="M307.8,116.5v1.2c-0.5,0.1-0.8,0.2-1.1,0.2c-0.4,0-0.8-0.1-1.1-0.3c-0.3-0.2-0.5-0.4-0.7-0.7
		c-0.1-0.3-0.2-0.7-0.2-1.4v-3.6h-0.9v-1.2h1l0.1-1.8l1.3-0.1v1.9h1.4v1.2h-1.4v3.4c0,0.4,0.1,0.7,0.2,0.9c0.2,0.2,0.5,0.2,0.9,0.2
		C307.5,116.5,307.6,116.5,307.8,116.5z"/>
	<path class="st1" d="M311.6,117.9c-1,0-1.8-0.4-2.4-1.1c-0.5-0.7-0.8-1.6-0.8-2.6c0-1,0.3-1.9,0.9-2.6c0.6-0.7,1.4-1,2.4-1
		c0.9,0,1.7,0.3,2.3,1c0.6,0.7,0.9,1.5,0.9,2.6c0,1.1-0.3,2-0.9,2.7C313.3,117.5,312.6,117.9,311.6,117.9z M311.6,116.6
		c1.1,0,1.6-0.8,1.6-2.4c0-0.7-0.1-1.3-0.4-1.7c-0.3-0.4-0.6-0.6-1.2-0.6c-0.5,0-1,0.2-1.2,0.6c-0.3,0.4-0.4,1-0.4,1.7
		c0,0.8,0.1,1.3,0.4,1.8C310.8,116.4,311.2,116.6,311.6,116.6z"/>
	<path class="st1" d="M317.9,117.7h-1.6v-7h1.4v1.7c0.2-0.7,0.5-1.1,0.8-1.4c0.4-0.3,0.7-0.5,1.1-0.5c0.1,0,0.1,0,0.2,0v1.7
		c-0.8,0-1.3,0.3-1.6,0.8c-0.3,0.5-0.4,1-0.4,1.5V117.7z"/>
	<path class="st1" d="M322.7,109.9h-1.6v-1.6h1.6V109.9z M322.7,117.7h-1.6v-7h1.6V117.7z"/>
	<path class="st1" d="M328.6,115.2l1.4,0.1c-0.2,0.9-0.5,1.5-1,2c-0.5,0.4-1.1,0.6-1.8,0.6c-1,0-1.7-0.4-2.2-1.1
		c-0.5-0.7-0.8-1.6-0.8-2.6c0-1.1,0.3-1.9,0.9-2.6c0.6-0.7,1.3-1,2.3-1c1.5,0,2.4,0.8,2.7,2.4l-1.4,0.2c-0.1-0.9-0.5-1.3-1.3-1.3
		c-0.5,0-0.9,0.2-1.2,0.7c-0.2,0.5-0.4,1-0.4,1.7c0,0.7,0.1,1.3,0.4,1.6c0.3,0.4,0.6,0.6,1.1,0.6C327.9,116.5,328.4,116,328.6,115.2
		z"/>
	<path class="st1" d="M338.3,117.9c-1.3,0-2.2-0.5-2.9-1.4c-0.7-0.9-1.1-2.1-1.1-3.5c0-1.4,0.4-2.5,1.1-3.5c0.7-0.9,1.7-1.4,3-1.4
		c1.2,0,2.2,0.5,2.9,1.4c0.7,0.9,1.1,2.1,1.1,3.5c0,1.5-0.4,2.6-1.1,3.5C340.5,117.4,339.5,117.9,338.3,117.9z M338.3,116.5
		c0.6,0,1.1-0.3,1.6-0.8c0.4-0.5,0.6-1.4,0.6-2.8c0-1.1-0.2-1.9-0.5-2.6c-0.4-0.6-0.9-0.9-1.6-0.9c-1.5,0-2.2,1.2-2.2,3.5
		c0,1.1,0.2,2,0.6,2.6C337.1,116.2,337.6,116.5,338.3,116.5z"/>
	<path class="st1" d="M345.5,117.7h-1.6v-9.5h1.6V117.7z"/>
	<path class="st1" d="M353.1,117.7h-1.5v-1.4c-0.4,1-1.1,1.6-2.1,1.6c-0.9,0-1.5-0.4-2-1.1c-0.5-0.7-0.7-1.6-0.7-2.7
		c0-1,0.2-1.9,0.7-2.6c0.5-0.7,1.2-1.1,2-1.1c0.9,0,1.5,0.4,1.9,1.2v-3.4h1.6V117.7z M351.5,113.6c0-0.6-0.1-1-0.4-1.3
		c-0.3-0.3-0.6-0.5-1.1-0.5c-0.5,0-0.8,0.2-1.1,0.6c-0.3,0.4-0.4,1-0.4,1.8c0,1.6,0.5,2.3,1.5,2.3c0.4,0,0.7-0.2,1-0.5
		c0.3-0.3,0.4-0.8,0.4-1.3V113.6z"/>
	<path class="st1" d="M362,117.7h-1.8v-8h-2.5v-1.5h6.9v1.5H362V117.7z"/>
	<path class="st1" d="M367.4,117.9c-1,0-1.8-0.4-2.4-1.1c-0.5-0.7-0.8-1.6-0.8-2.6c0-1,0.3-1.9,0.9-2.6c0.6-0.7,1.4-1,2.4-1
		c0.9,0,1.7,0.3,2.3,1c0.6,0.7,0.9,1.5,0.9,2.6c0,1.1-0.3,2-0.9,2.7C369.2,117.5,368.4,117.9,367.4,117.9z M367.5,116.6
		c1.1,0,1.6-0.8,1.6-2.4c0-0.7-0.1-1.3-0.4-1.7c-0.3-0.4-0.6-0.6-1.2-0.6c-0.5,0-1,0.2-1.2,0.6c-0.3,0.4-0.4,1-0.4,1.7
		c0,0.8,0.1,1.3,0.4,1.8C366.6,116.4,367,116.6,367.5,116.6z"/>
	<path class="st1" d="M380.9,110.7l-2.1,7h-1.4l-1.3-4.9l-1.3,4.9h-1.5l-2.2-7h1.7l1.4,4.7l1.2-4.7h1.4l1.2,4.7l1.4-4.7H380.9z"/>
	<path class="st1" d="M387.8,117.7h-1.6v-4.4c0-0.5-0.1-0.8-0.3-1c-0.2-0.2-0.5-0.4-0.8-0.4c-0.4,0-0.8,0.2-1.1,0.5
		c-0.3,0.4-0.5,0.9-0.5,1.6v3.6H382v-7h1.4v1.6c0.5-1.2,1.2-1.8,2.1-1.8c0.6,0,1.1,0.2,1.6,0.6c0.4,0.4,0.7,1.1,0.7,2V117.7z"/>
</g>
<path class="st1" d="M401,98.4c1.8,0,4.7-1.1,4.6-3l-4.1,1.1c-12.9,0-319.1,0-319.1,0c-4.5,0-8.7-0.6-12.4-1.1
	c1.6,1.1,2.5,2.3,2.9,4c0,0,2.7-1,4.2-1h37.5c0.5,0,0.3,0.1,0,0.2c-16.2,4.8-27.6,12.4-39.1,21c-11.6,8.8-22.7,19.5-37.4,20.7
	c-14.3,1.1-32-10.9-26.3-30.2c2.6-8.9,12.7-19.8,23.5-20.2c0-0.6-0.1-1.3-0.1-1.9c-7.8,0.3-21.7,6.7-27.1,19.7
	c-7.3,17.5,1.8,32.8,30,34.2c15.5,0.8,31.3-8.6,44.2-19.5c11.7-9.9,23.5-20.8,38.5-24.1c8.1,0.1,17.1-0.7,23.9,3.1
	c12.2,6.8,16.3,24.6,2.3,34.6c-11.7,8.3-22.4,4-26.7-3.1c-4.3-7.2-0.7-16.7,8.6-20c3.9-1.4,7.4-0.2,9,3.2c0.7,1.5,1.1,3.5,3.5,3.1
	c-2.1-0.8-2.1-2.9-2.7-4.7c-3.3-10.8-19.4-4.3-22.2,5.3c-5.7,19.3,13.5,29,31.5,18.5c14.4-8.3,16.2-27.2,1.4-36.4
	c-0.3-0.2-0.2-0.4,0-0.3c8.9,2.2,16.3,11,25.8,13.1c20,3.3,29.8-10.1,15.3-16.4c6.4,0,203.7,0,203.7,0c7.3,0,11.6,7.8,8.2,11.9
	C406.5,110,407,101.2,401,98.4z M188.2,112.4c-5.5,2.4-12.9-0.3-17.4-2.9c-6.7-3.9-12.7-8.9-21.9-10.9c-0.3-0.1-0.1-0.2-0.1-0.2
	h28.7c-4.1,3.6-3.4,8.3,0.8,10.7c2.7,1.5,7.7-0.5,8.2-3.6c0.2-1,0.3-1.8,1.3-2.7c-1.8-0.3-3,1.1-4.3,2.3c-3.7,3.5-8.1-0.3-5.9-4.2
	c1.5-2.6,8.4-3,12.6-0.7C196.4,103.7,195,109.4,188.2,112.4z"/>
</svg>
