<?xml version="1.0" encoding="utf-8"?>
<!-- Generator: Adobe Illustrator 29.8.2, SVG Export Plug-In . SVG Version: 9.03 Build 0)  -->
<svg version="1.1" id="Layer_1" xmlns="http://www.w3.org/2000/svg" xmlns:xlink="http://www.w3.org/1999/xlink" x="0px" y="0px"
	 width="368.2px" height="384px" viewBox="0 0 368.2 384" style="enable-background:new 0 0 368.2 384;" xml:space="preserve">
<style type="text/css">
	.st0{opacity:0.5;}
</style>
<g>
	<g class="st0">
		<path d="M106.3,39.8l63.3,0c18.7,1.9,39.1,5.6,53.8,18c25.2,21.3,28.5,63.9,3.4,86.6l-9.7,7.1c42.4,7.8,65.5,53.3,43.3,91.7
			c-14.1,24.4-41.3,34.4-68.3,36.5l-85.7,0V39.8z M137,144.8c26.6,0.3,69,3.2,76-30.7c3.4-16.3-2.3-32.4-16.9-40.9
			c-17.6-10.3-39.6-7.5-59.1-7.9V144.8z M137,254.2c29.3-1.5,77.5,7.6,95.4-22.6c12.9-21.7,3.2-46.5-19.3-56.3
			c-12.5-5.4-25.8-5.4-39-6.6l-37.1,0V254.2z"/>
		<path d="M229,289.5l7.4,0.1l8.7,24.7l9-24c1.2-1.4,4.6-0.5,6.4-0.7v33H256V297l-8.6,22.5l-5.6,0.7l-4.7-14.4l-3.6-8.1v24.8H229
			V289.5z"/>
		<path d="M30.3,289.5c7.4,1.3,12.8,10.2,4.9,14.6c5.5,2.9,10.7,7.8,5.6,13.9c-1.1,1.4-6,4.5-7.5,4.5H15v-33
			C19.6,290.1,25.9,288.7,30.3,289.5z M20.2,303.8c17.3,1.4,18.1-12.5,0-10.5V303.8z M20.2,318.8h10.9c2,0,6.3-3.1,6.3-5.6
			c0-2.2-3.7-5.6-5.6-5.6H20.2V318.8z"/>
		<path d="M313.6,287.2v35.2l-5.2,0l-0.4-2.2c-1.1,1.1-2.3,2.5-3.9,2.8c-20.7,4.7-15-35.9,4.3-23.1v-12.8H313.6z M308.2,303.1
			c-0.5-0.7-5-2.5-6.2-2.4c-7,0.5-7.7,16.6-2.5,18.9c2.7,1.2,7.2-0.6,8.4-3.2C308.5,315.3,308.7,303.8,308.2,303.1z"/>
		<path d="M351.6,320.4c0.5,0.7,0,2,0.2,2.9c-2.9,0.1-6.3,0.7-6.8-3l-1.1,0c-3.1,4.1-12.4,4.6-13.7-1.3c-2-8.8,6.1-11.3,13.3-10.7
			c1.5-9.6-4.8-8.2-11.2-5.3l0.1-3.7c3.2-1.4,6.5-2,10-1.6c11.3,1.2,3.4,18,7.5,21.8C350.3,320,351.4,320.1,351.6,320.4z
			 M343.6,310.5c-4.4-0.9-12.4,3.5-7.5,7.8c2.5,2.2,4.9,0.5,7.1-1.1L343.6,310.5z"/>
		<path d="M181.9,322.5h-5.2v-19.1c0-5.3-10.5-0.5-10.5,3v16.1h-4.5v-24l4.5,0.1l0.4,2.2c3.2-3.2,10.5-4.8,13.5-0.7
			c0.3,0.5,1.9,3.9,1.9,4.1V322.5z"/>
		<path d="M64.4,298.5v19.9c0,0.2,1.5,1.6,2,1.8c2.4,0.7,8.5-3.4,8.5-5.5v-16.1h4.5v24l-4.5,0l-0.4-3c-2.8,4.1-10.1,5.5-13.5,1.5
			c-0.5-0.5-1.8-3-1.8-3.4v-19.1H64.4z"/>
		<path d="M286.7,311.2h-15c-0.1,9.3,7.8,10,15,7.5c1.5,5.1-8.1,5-11.4,4.3c-4.1-0.8-8.2-5.9-8.7-10
			C264,294,288.5,291.6,286.7,311.2z M282.2,308.2c-0.5-10-10.4-9.9-10.5,0H282.2z"/>
		<path d="M207.3,311.2h-15c-0.1,9.3,7.8,10,15,7.5c1.5,5.1-8.1,5-11.4,4.3c-4.1-0.8-8.2-5.9-8.7-10
			C184.7,294,209.1,291.6,207.3,311.2z M202.8,308.2c-0.5-10-10.4-9.9-10.5,0H202.8z"/>
		<path d="M105.5,311.2h-15c-0.1,9.3,7.8,10,15,7.5c1.5,5.1-8.1,5-11.4,4.3c-4.1-0.8-8.2-5.9-8.7-10
			C82.9,294,107.3,291.6,105.5,311.2z M101,308.2c-0.5-10-10.4-9.9-10.5,0H101z"/>
		<path d="M300.1,371.2c-2.4,0.4-3.1-0.8-3-3c-11.3,8.7-23.1-1.8-18.9-14.8c3.6-10.8,19.1-10.7,21.9,0.5l-4.4-0.1
			c-0.2-2.7-2-4.2-4.5-4.8c-11.6-2.7-13.7,17.4-3.2,19c4.4,0.7,9.3-2.6,8.4-7.4l-7.5,0l0-3h11.2V371.2z"/>
		<polygon points="253,346.5 257.3,346.6 269.5,364.5 269.5,346.5 273.2,346.5 273.2,370.5 268.3,369.7 256.7,352.5 256.7,370.5 
			253,370.5 		"/>
		<path d="M180,345.8c1.8,0.4,3.9,3.8,4.1,5.7c0.5,4.2-3.1,6.2-2.9,7.3c0.2,0.7,1.5,1.7,1.8,2.7c0.9,2.8,0.1,6.4,1.8,9l-4.5,0
			c0.5-10.4-2.2-11.4-12-10.5v10.5h-3.7v-24.8C168.9,346.4,176.2,344.8,180,345.8z M168.4,357c3.9,0.2,13.8,1,11.8-5.5
			c-1.3-4.3-8.4-2.4-11.8-2.8V357z"/>
		<path d="M96.6,370.5v-24.8h13.1c1,0,5.3,3.4,5.9,4.6c2.7,4.7,2.1,14.3-2.2,18c-0.5,0.4-3.5,2.2-3.8,2.2H96.6z M100.3,367.5
			c7.3,0.8,13.3-1,13.3-9.4c0-8.6-5.9-10.1-13.3-9.4V367.5z"/>
		<path d="M238,354l-3.6-0.1c-0.4-6-10.3-6.9-11.2-1.6c-1,5.6,13.9,2.9,15.5,9.7c2.8,12.3-19.8,12.7-20,0.2l3.7,0.1
			c-0.6,6.8,12.9,8,12.9,1.8c0-6.8-16.5-2.3-15.8-12C220,343.1,238.2,343.1,238,354z"/>
		<polygon points="131,289.5 131,319.5 146,319.5 146,322.5 125.7,322.5 125.7,289.5 		"/>
		<polygon points="160.2,345.8 160.2,348.8 146.7,348.8 146.7,356.2 159.4,356.2 159.4,359.2 146.7,359.2 146.7,367.5 160.2,367.5 
			160.2,370.5 143,370.5 143,345.8 		"/>
		<path d="M83.8,346.6l9.1,23.9l-4.4-0.1l-2.3-7.1l-9.8,0.1l-2.2,7l-3.7,0.1l8.6-23.3L83.8,346.6z M85.3,360l-4.5-9.7l-3,9.7
			L85.3,360z"/>
		<path d="M121.9,346.6L128,366c1-0.1,1.2-1.1,1.5-1.8c1.4-3.3,4.2-15.3,5.6-16.9c1-1.2,2.8-0.7,4.1-0.7l-8.3,23.9
			c-1.7,0.2-4.2,0.7-5-1.2c-1.5-7.3-5.9-14.7-7.5-21.7C117.9,345.6,120.8,346.6,121.9,346.6z"/>
		<rect x="48.7" y="287.2" width="4.5" height="35.2"/>
		<polygon points="206.6,345.8 206.6,348.7 198.3,348.8 198.3,370.5 195.4,370.5 195.4,348.8 187.1,348.7 187.1,345.8 		"/>
		<rect x="320.3" y="298.5" width="4.5" height="24"/>
		<rect x="150.4" y="298.5" width="4.5" height="24"/>
		<rect x="209.6" y="346.5" width="3.7" height="24"/>
		<rect x="243.3" y="346.5" width="3.7" height="24"/>
		<rect x="320.3" y="289.5" width="4.5" height="4.5"/>
		<rect x="150.4" y="289.5" width="4.5" height="4.5"/>
	</g>
	<g>
	</g>
</g>
</svg>
