<svg xmlns="http://www.w3.org/2000/svg" xmlns:xlink="http://www.w3.org/1999/xlink" version="1.1" id="Layer_1" x="0px" y="0px" width="310.9px" height="162.8px" viewBox="0 0 310.9 162.8" style="enable-;background-color:transparent;" xml:space="preserve">
<style type="text/css">
	.st0{fill:#FFFFFF;}
</style>
<g>
	<g>
		
		<path d="M175.1,66.9l-2.9-3.9l2.5-3.1l-1.6-1.3l-2.4,2.6l-4.4-5.6c0.9-1.1,2.2-1.7,3-3c1.7-2.9,0-6.2-3.3-6.5    c-4.1-0.4-6.3,3.4-4.4,7c0.2,0.4,1.3,1.8,1.3,2.1c-1.7,1.3-3.8,2.4-4.7,4.4c-1.3,2.7-0.5,5.8,2,7.4c3.8,2.4,7.5,0.4,10.4-2.2    l2.5,3.2l0.1,0.6c-2.6,1.4-5.1,3-7.8,4.1c-7.2-3.3-18.8-10.1-20.7-18.4c-0.9-4.1,0.5-8.8,3.9-11.3c5.1-3.8,12-2.9,16.7,1    c0.2,0,1.8-1.2,2.3-1.5c12.8-7.5,25.5,6.5,14.5,18.8c-1.3,1.4-4.9,4.8-6.5,5.6C175.5,66.8,175.3,67,175.1,66.9z" data-index="1"></path>
		<path d="M50.3,51c0.2,0,0.2,0,0.4-0.1c0.4-0.3,0.8-0.9,1.2-1.3c3.6-3,9.6-2.1,11.8,2.1c1.5-1.9,3.3-3.6,5.9-3.8    c5.5-0.4,8.4,2.2,8.7,7.6c0.2,4.3-0.2,8.8,0,13.1h-7V57.4c0-1.8-1.1-4.2-3.1-4.5c-3.6-0.5-4,3.6-4.1,6.2c-0.1,3.1,0.1,6.4,0,9.5    h-6.7V57.3c0-0.4-0.3-1.5-0.5-1.9c-1.1-3.2-4.9-3.3-6.1-0.2c-0.2,0.4-0.5,1.7-0.5,2v11.5h-6.8V48.4h6.8V51z" data-index="2" style="opacity: 1;"></path>
		<path d="M39.5,40.7L36.7,46c-2-1.5-7.2-2.9-8.4,0.2c-0.8,2.1,1.1,3.1,2.7,3.7c4.1,1.6,9.3,2,9.8,7.6c0.6,6-2.3,10.3-8.4,11.3    c-4.6,0.8-9-0.3-12.8-2.9l2.9-5.6c2.1,1.9,5.7,3.6,8.5,2.6c1.7-0.6,3-2.3,2.1-4.1c-1.7-3.4-9.6-2.3-11.8-7    c-1.8-3.7-0.5-8.9,2.9-11.3C28.8,37.1,34.7,38.3,39.5,40.7z" data-index="3" style="visibility: visible;"></path>
		<path d="M97.8,51v-2.5h6.7v20.1h-6.7v-2.2l-1.3,1.2c-5.2,3.4-12,1.4-14.6-4.2c-3.6-7.8,2.3-17.3,11.2-15.4    C95.1,48.4,96.5,49.5,97.8,51z M89.1,55.1c-2.3,2.5-1.4,7.1,1.9,8.1c4.1,1.4,7.9-1.7,6.9-6C96.9,53.3,91.7,52.2,89.1,55.1z" data-index="4" style="opacity: 1;"></path>
		<path d="M262.1,50.8v-2.4h6.7v20.1h-6.7v-2.2c-0.2-0.1-0.2,0.1-0.3,0.2c-2.3,2.2-4.7,3-7.9,2.5c-9-1.3-11.6-13.6-4.9-19.2    c3.2-2.7,8.8-3.2,12-0.2C261.3,50.1,261.6,50.7,262.1,50.8z M256.7,53.5c-6.4,0.6-6,10.5,1,10C264.3,63.1,263.6,52.8,256.7,53.5z" data-index="5" style="opacity: 1;"></path>
		<polygon points="206.9,39.3 206.9,45.2 197.2,45.2 197.2,51 206,51 206,56.8 197.2,56.8 197.2,68.6 190.4,68.6 190.4,39.3   "></polygon>
		<path d="M242.5,68.6h-6.7V57.3c0-0.9-0.6-2.7-1.2-3.4c-1.4-1.4-4.4-1.1-5.6,0.4c-0.6,0.7-1.1,2.3-1.1,3.2v11.1h-6.6V48.4h6.6v2.3    c0,0.1,0,0.4,0.2,0.3c0.2-0.1,0.9-1.2,1.3-1.5c2.5-2.3,7.9-2.4,10.6-0.3c2,1.6,2.5,3.8,2.6,6.2C242.7,59.8,242.4,64.3,242.5,68.6z    " data-index="6"></path>
		<polygon points="136.2,42.2 136.2,48.4 140.3,48.4 140.3,53.8 136.2,53.8 136.2,68.6 129.5,68.6 129.5,53.8 125.9,53.8     125.9,48.4 129.5,48.4 129.5,42.2   "></polygon>
		<rect x="272.6" y="37.4" width="6.7" height="31.2"></rect>
		<path d="M123.6,48.2v6.2c-1.8-0.7-4.2-0.8-5.8,0.2c-2,1.2-2.3,3.7-2.4,5.8c-0.1,2.7,0.1,5.4,0,8.1h-6.6V48.7c0,0-0.2-0.1,0.1-0.3    h6.5l0,2.9l0.2,0.3c1-1.6,2.5-2.7,4.3-3.2c0.3-0.1,1.3-0.3,1.5-0.3H123.6z" data-index="7" style="visibility: visible;"></path>
		<rect x="210.4" y="48.4" width="6.6" height="20.1"></rect>
		<path d="M120,104.7l6.5,9.7v-9.7h1.6v11.8h-1.7c0,0-0.1,0.1-0.2,0.1l-6.7-9.7v9.6h-1.6v-11.8H120z" data-index="8"></path>
		<path d="M234.2,104.7l6.4,9.4l0.3,0.2v-9.6h1.6v11.8h-2.2l-6.5-9.6v9.6l-1.5,0l-0.2-0.2c0,0,0.1-0.1,0.1-0.1v-11.5H234.2z" data-index="9" style="visibility: visible;"></path>
		<path d="M214.1,104.5c3.6-0.5,7,1.5,7.3,5.3c0.8,9.3-13.1,9.3-12.2,0C209.4,107.3,211.5,104.8,214.1,104.5z M218.7,113.7    c2.2-2.6,0.9-7.5-2.8-7.9c-3.7-0.4-5.9,2.9-4.9,6.3C212,115.5,216.5,116.4,218.7,113.7z" data-index="10" style="opacity: 1;"></path>
		<path d="M79.7,104.5c9.7-1.2,9.6,13,0.6,12.3C72.9,116.2,73,105.3,79.7,104.5z M79.9,105.9c-5,0.8-4.7,9.7,1.2,9.4    C87.1,115.1,86.7,104.9,79.9,105.9z" data-index="11" style="opacity: 1;"></path>
		<path d="M201.1,84.7c2.6,0.3,3.6,3.4,1.5,5c-0.2,0.1-1,0.4-0.8,0.6c2.4,0.2,3,3.6,1.4,5.1c-0.4,0.4-1.8,1-2.3,1h-5V84.7    C197.5,84.8,199.5,84.5,201.1,84.7z M197.5,89.6h2.6c0.2,0,1.1-0.3,1.3-0.4c0.9-0.6,0.8-2.3-0.1-2.9c-0.1-0.1-0.6-0.3-0.7-0.3    h-3.1V89.6z M197.5,90.9v4l0.2,0.2h2.5c0.1,0,0.9-0.2,1.1-0.3c1.7-0.6,1.6-3,0-3.7c-0.1,0-0.7-0.3-0.7-0.3H197.5z" data-index="12" style="visibility: visible; opacity: 1;"></path>
		<path d="M164.7,57.3c1.5,1.5,2.6,3.7,4.1,5.2l0.2,0.4c-1.5,1.5-3.7,3.3-6,2.9c-1.4-0.2-2.8-1.6-3-3c-0.5-3.1,2.1-4.5,4.2-6l0.3,0    C164.5,57,164.6,57.2,164.7,57.3z" data-index="13"></path>
		<path d="M144.4,104.7c5.8,0.6,7,8.7,1.9,11.1c-0.3,0.2-1.7,0.6-2,0.6h-5v-11.8C141,104.8,142.8,104.5,144.4,104.7z M143.9,106.1    c-0.9-0.1-2,0.1-3,0l-0.2,0.2v8.7h3.1c0.1,0,1-0.2,1.1-0.3C149.4,113.2,148.6,106.6,143.9,106.1z" data-index="14" style="visibility: visible; opacity: 1;"></path>
		<path d="M128.2,84.7c3.7,0.5,3.5,6-0.2,6.4l3.2,5.3h-1.9l-2.9-5.2h-1.9v5.2H123V84.7C124.6,84.8,126.6,84.4,128.2,84.7z     M124.6,89.8h3.1c0,0,0.7-0.3,0.8-0.3c1.3-0.7,1.1-2.8-0.3-3.3c-0.1,0-0.7-0.2-0.7-0.2h-2.8V89.8z" data-index="15" style="visibility: visible; opacity: 1;"></path>
		<polygon points="81.2,84.7 81.2,89.6 87.3,89.6 87.5,89.4 87.5,84.7 89,84.7 89,96.4 87.5,96.4 87.5,91.2 87.3,91 81.2,91     81.2,96.4 79.7,96.4 79.7,84.7   "></polygon>
		<path d="M212.7,37.3c6-1,6.2,7.7,0.8,7.5C208.9,44.7,208.8,38,212.7,37.3z" data-index="16"></path>
		<path d="M173.2,96.4l5.1-11.6l1.5-0.1l5,11.8h-1.7l-1.3-2.9c-1.7,0.1-3.7-0.2-5.3,0c-0.2,0-0.3,0-0.4,0.2    c-0.5,0.6-0.5,2.1-1.2,2.7H173.2z M181.2,92.1l-2.3-5.4l-2.2,5.4H181.2z" data-index="17" style="visibility: visible; opacity: 1;"></path>
		<path d="M111.8,96.4h-1.9l-1.1-2.9l-5.7,0l-1.2,2.9h-1.7l5.1-11.6c0.2-0.2,1.4-0.2,1.6,0.1L111.8,96.4z M108.2,92.1l-2.2-5.4    l-2.3,5.4H108.2z" data-index="18" style="opacity: 1;"></path>
		<path d="M158.9,116.4l5.2-11.8l1.4,0.1l4.9,11.7h-1.8l-1.1-2.9l-5.8,0.1l-1.1,2.8H158.9z M162.4,112.2h4.4l-2.2-5.4L162.4,112.2z" data-index="19" style="opacity: 1;"></path>
		<polygon points="241.9,84.7 241.9,86.1 235.9,86.1 235.9,89.7 241.6,89.7 241.6,91.1 235.9,91.1 235.9,95 242.3,95 242.3,96.4     234.4,96.4 234.4,84.7   "></polygon>
		<path d="M99,104.7v7.6c0,0.1,0.3,1,0.3,1.2c0.9,2.2,4,2.5,5.2,0.4c0.1-0.2,0.5-0.9,0.5-1.1v-8.1h1.6v8.5c0,0.3-0.5,1.3-0.6,1.5    c-2.2,3.8-8.5,2.1-8.5-2.1v-7.9H99z" data-index="20"></path>
		<path d="M67.9,86.2l-1.4,1c-0.9-1.2-2.5-1.6-3.9-1.3c-5,1.2-4.4,9.9,1.6,9.3c0.9-0.1,2.1-0.7,2.5-1.6l1.4,1    c-1.6,2.1-5,2.6-7.4,1.4c-4.9-2.6-4-10.4,1.5-11.6C64.3,84.1,66.6,84.5,67.9,86.2z" data-index="21"></path>
		<polygon points="64.8,104.7 64.8,106.1 59,106.1 59,110 64.4,109.8 64.4,111.4 59,111.4 59,116.4 57.5,116.4 57.5,104.7   "></polygon>
		<polygon points="164.9,84.7 164.9,86.1 161,86.1 161,96.4 159.5,96.4 159.5,86.1 155.6,86.1 155.6,84.7   "></polygon>
		<polygon points="186.7,104.7 186.7,106.1 183.1,106.1 182.9,106.3 182.9,116.4 181.3,116.4 181.3,106.1 177.7,106.1 177.5,105.9     177.6,104.7   "></polygon>
		<polygon points="217.7,84.7 217.7,95 223.1,95 223.1,96.4 216.1,96.4 216.1,84.7   "></polygon>
		<path d="M165.2,53.5c-0.1,0,0,0.3-0.4,0.2c-0.5-1-1.4-1.7-1.6-2.9c-0.5-2.2,2.1-3.8,3.8-2.3c0.8,0.7,0.8,1.5,0.6,2.4    C167.4,51.9,165.9,53.1,165.2,53.5z" data-index="22" style="visibility: visible;"></path>
		<rect x="142.8" y="84.7" width="1.6" height="11.8"></rect>
		<rect x="196.9" y="104.7" width="1.4" height="11.8"></rect>
		
		<path class="st0" d="M256.7,53.5c7-0.7,7.7,9.6,1,10C250.7,64,250.3,54.1,256.7,53.5z" data-index="24" style="visibility: hidden; opacity: 1;"></path>
		
		<path class="st0" d="M79.9,105.9c6.8-1.1,7.2,9.2,1.2,9.4C75.2,115.6,74.8,106.7,79.9,105.9z" data-index="26" style="opacity: 1; visibility: hidden;"></path>
		
		<path class="st0" d="M197.5,89.6V86h3.1c0,0,0.6,0.2,0.7,0.3c0.9,0.6,1,2.2,0.1,2.9c-0.2,0.1-1.1,0.4-1.3,0.4H197.5z" data-index="28" style="opacity: 1; visibility: hidden;"></path>
		
		<path class="st0" d="M124.6,89.8V86h2.8c0,0,0.7,0.2,0.7,0.2c1.4,0.6,1.6,2.6,0.3,3.3c-0.1,0.1-0.7,0.3-0.8,0.3H124.6z" data-index="30" style="opacity: 1; visibility: hidden;"></path>
		<polygon class="st0" points="181.2,92.1 176.8,92.1 178.9,86.7   "></polygon>
		<polygon class="st0" points="108.2,92.1 103.8,92.1 106.1,86.7   "></polygon>
		<polygon class="st0" points="162.4,112.2 164.6,106.8 166.8,112.2   "></polygon>
	</g>
</g>
</svg>