<?xml version="1.0" encoding="UTF-8" standalone="no"?>
<svg
   width="24px"
   height="24px"
   stroke-width="1.5"
   viewBox="0 0 24 24"
   fill="none"
   color="#000000"
   version="1.1"
   id="svg4"
   sodipodi:docname="activitiesIcon.svg"
   inkscape:version="1.4 (86a8ad7, 2024-10-11)"
   xmlns:inkscape="http://www.inkscape.org/namespaces/inkscape"
   xmlns:sodipodi="http://sodipodi.sourceforge.net/DTD/sodipodi-0.dtd"
   xmlns="http://www.w3.org/2000/svg"
   xmlns:svg="http://www.w3.org/2000/svg">
  <defs
     id="defs4" />
  <sodipodi:namedview
     id="namedview4"
     pagecolor="#ffffff"
     bordercolor="#000000"
     borderopacity="0.25"
     inkscape:showpageshadow="2"
     inkscape:pageopacity="0.0"
     inkscape:pagecheckerboard="0"
     inkscape:deskcolor="#d1d1d1"
     inkscape:zoom="48.625"
     inkscape:cx="12"
     inkscape:cy="12"
     inkscape:window-width="2560"
     inkscape:window-height="1369"
     inkscape:window-x="-8"
     inkscape:window-y="-8"
     inkscape:window-maximized="1"
     inkscape:current-layer="svg4" />
  <path
     style="fill:#40a2c5;fill-opacity:1"
     id="path5"
     sodipodi:type="arc"
     sodipodi:cx="12"
     sodipodi:cy="12"
     sodipodi:rx="12"
     sodipodi:ry="12"
     sodipodi:start="0"
     sodipodi:end="6.2815589"
     sodipodi:arc-type="slice"
     d="M 24,12 A 12,12 0 0 1 12.004879,23.999999 12,12 0 0 1 3.9678003e-6,12.009758 12,12 0 0 1 11.985362,8.92755e-6 12,12 0 0 1 23.999984,11.980483 L 12,12 Z" />
  <path
     d="M15 7C16.1046 7 17 6.10457 17 5C17 3.89543 16.1046 3 15 3C13.8954 3 13 3.89543 13 5C13 6.10457 13.8954 7 15 7Z"
     stroke="#000000"
     stroke-width="1.5"
     stroke-linecap="round"
     stroke-linejoin="round"
     id="path1"
     style="fill:none;fill-opacity:1" />
  <path
     d="M12.6133 8.26691L9.30505 12.4021L13.4403 16.5374L11.3727 21.0861"
     stroke="#000000"
     stroke-width="1.5"
     stroke-linecap="round"
     stroke-linejoin="round"
     id="path2"
     style="fill:none;fill-opacity:1" />
  <path
     d="M6.4104 9.5075L9.79728 6.19931L12.6132 8.26692L15.508 11.5752H19.2297"
     stroke="#000000"
     stroke-width="1.5"
     stroke-linecap="round"
     stroke-linejoin="round"
     id="path3"
     style="fill:none;fill-opacity:1" />
  <path
     d="M8.89152 15.7103L7.65095 16.5374H4.34277"
     stroke="#000000"
     stroke-width="1.5"
     stroke-linecap="round"
     stroke-linejoin="round"
     id="path4"
     style="fill:none;fill-opacity:1" />
</svg>
