<?xml version="1.0" encoding="UTF-8" standalone="no"?>
<svg
   width="24px"
   height="24px"
   viewBox="0 0 24 24"
   stroke-width="1.5"
   fill="none"
   color="#000000"
   version="1.1"
   id="svg6"
   sodipodi:docname="communityIcon.svg"
   inkscape:version="1.4 (86a8ad7, 2024-10-11)"
   xmlns:inkscape="http://www.inkscape.org/namespaces/inkscape"
   xmlns:sodipodi="http://sodipodi.sourceforge.net/DTD/sodipodi-0.dtd"
   xmlns="http://www.w3.org/2000/svg"
   xmlns:svg="http://www.w3.org/2000/svg">
  <defs
     id="defs6" />
  <sodipodi:namedview
     id="namedview6"
     pagecolor="#ffffff"
     bordercolor="#000000"
     borderopacity="0.25"
     inkscape:showpageshadow="2"
     inkscape:pageopacity="0.0"
     inkscape:pagecheckerboard="0"
     inkscape:deskcolor="#d1d1d1"
     inkscape:zoom="48.625"
     inkscape:cx="12"
     inkscape:cy="12"
     inkscape:window-width="2560"
     inkscape:window-height="1369"
     inkscape:window-x="-8"
     inkscape:window-y="-8"
     inkscape:window-maximized="1"
     inkscape:current-layer="svg6" />
  <path
     style="fill:#55452c;fill-opacity:1"
     id="path7"
     sodipodi:type="arc"
     sodipodi:cx="12"
     sodipodi:cy="12"
     sodipodi:rx="12"
     sodipodi:ry="12"
     sodipodi:start="0"
     sodipodi:end="6.2815589"
     sodipodi:arc-type="slice"
     d="M 24,12 A 12,12 0 0 1 12.004879,23.999999 12,12 0 0 1 3.9678003e-6,12.009758 12,12 0 0 1 11.985362,8.92755e-6 12,12 0 0 1 23.999984,11.980483 L 12,12 Z" />
  <path
     d="m 7.5382047,16.209266 v -0.892359 c 0,-2.46416 1.9976171,-4.461795 4.4617953,-4.461795 v 0 c 2.46416,0 4.461795,1.997635 4.461795,4.461795 v 0.892359"
     stroke="#000000"
     stroke-width="1.33854"
     stroke-linecap="round"
     stroke-linejoin="round"
     id="path1" />
  <path
     d="m 2.1840506,16.209266 v -0.892359 c 0,-1.47855 1.198572,-2.677077 2.677077,-2.677077 v 0"
     stroke="#000000"
     stroke-width="1.33854"
     stroke-linecap="round"
     stroke-linejoin="round"
     id="path2" />
  <path
     d="m 21.815949,16.209266 v -0.892359 c 0,-1.47855 -1.198528,-2.677077 -2.677077,-2.677077 v 0"
     stroke="#000000"
     stroke-width="1.33854"
     stroke-linecap="round"
     stroke-linejoin="round"
     id="path3" />
  <path
     d="m 12,10.855112 c 1.478549,0 2.677077,-1.1985283 2.677077,-2.6770773 0,-1.4785055 -1.198528,-2.6770775 -2.677077,-2.6770775 -1.47855,0 -2.6770773,1.198572 -2.6770773,2.6770775 0,1.478549 1.1985273,2.6770773 2.6770773,2.6770773 z"
     stroke="#000000"
     stroke-width="1.33854"
     stroke-linecap="round"
     stroke-linejoin="round"
     id="path4" />
  <path
     d="m 4.8611276,12.63983 c 0.985673,0 1.7847181,-0.799019 1.7847181,-1.784718 0,-0.9857003 -0.7990451,-1.7847183 -1.7847181,-1.7847183 -0.985673,0 -1.784718,0.799018 -1.784718,1.7847183 0,0.985699 0.799045,1.784718 1.784718,1.784718 z"
     stroke="#000000"
     stroke-width="1.33854"
     stroke-linecap="round"
     stroke-linejoin="round"
     id="path5" />
  <path
     d="m 19.138872,12.63983 c 0.985699,0 1.784718,-0.799019 1.784718,-1.784718 0,-0.9857003 -0.799019,-1.7847183 -1.784718,-1.7847183 -0.9857,0 -1.784718,0.799018 -1.784718,1.7847183 0,0.985699 0.799018,1.784718 1.784718,1.784718 z"
     stroke="#000000"
     stroke-width="1.33854"
     stroke-linecap="round"
     stroke-linejoin="round"
     id="path6" />
</svg>
