<?xml version="1.0" encoding="UTF-8" standalone="no"?>
<svg
   width="24px"
   height="24px"
   viewBox="0 0 24 24"
   stroke-width="1.5"
   fill="none"
   color="#000000"
   version="1.1"
   id="svg4"
   sodipodi:docname="foodIcon.svg"
   inkscape:version="1.4 (86a8ad7, 2024-10-11)"
   xmlns:inkscape="http://www.inkscape.org/namespaces/inkscape"
   xmlns:sodipodi="http://sodipodi.sourceforge.net/DTD/sodipodi-0.dtd"
   xmlns="http://www.w3.org/2000/svg"
   xmlns:svg="http://www.w3.org/2000/svg">
  <defs
     id="defs4" />
  <sodipodi:namedview
     id="namedview4"
     pagecolor="#ffffff"
     bordercolor="#000000"
     borderopacity="0.25"
     inkscape:showpageshadow="2"
     inkscape:pageopacity="0.0"
     inkscape:pagecheckerboard="0"
     inkscape:deskcolor="#d1d1d1"
     inkscape:zoom="48.625"
     inkscape:cx="12"
     inkscape:cy="12"
     inkscape:window-width="2560"
     inkscape:window-height="1369"
     inkscape:window-x="-8"
     inkscape:window-y="-8"
     inkscape:window-maximized="1"
     inkscape:current-layer="svg4" />
  <path
     style="fill:#824444;fill-opacity:1"
     id="path5"
     sodipodi:type="arc"
     sodipodi:cx="12"
     sodipodi:cy="12"
     sodipodi:rx="12"
     sodipodi:ry="12"
     sodipodi:start="0"
     sodipodi:end="6.2815589"
     sodipodi:arc-type="slice"
     d="M 24,12 A 12,12 0 0 1 12.004879,23.999999 12,12 0 0 1 3.9678003e-6,12.009758 12,12 0 0 1 11.985362,8.92755e-6 12,12 0 0 1 23.999984,11.980483 L 12,12 Z" />
  <path
     d="M6 20H9M12 20H9M9 20V15"
     stroke="#000000"
     stroke-width="1.5"
     stroke-linecap="round"
     stroke-linejoin="round"
     id="path1" />
  <path
     d="M17 20V12C17 12 19.5 11 19.5 9C19.5 7.24264 19.5 4.5 19.5 4.5"
     stroke="#000000"
     stroke-width="1.5"
     stroke-linecap="round"
     stroke-linejoin="round"
     id="path2" />
  <path
     d="M17 8.5V4.5"
     stroke="#000000"
     stroke-width="1.5"
     stroke-linecap="round"
     stroke-linejoin="round"
     id="path3" />
  <path
     d="M4.49999 11C5.49991 13.1281 8.99999 15 8.99999 15C8.99999 15 12.5001 13.1281 13.5 11C14.5795 8.70257 13.5 4.5 13.5 4.5L4.49999 4.5C4.49999 4.5 3.42047 8.70257 4.49999 11Z"
     stroke="#000000"
     stroke-width="1.5"
     stroke-linecap="round"
     stroke-linejoin="round"
     id="path4" />
</svg>
